<?xml version="1.0" encoding="UTF-8" standalone="no"?>
<!-- Created with Inkscape (http://www.inkscape.org/) -->

<svg
   xmlns:dc="http://purl.org/dc/elements/1.1/"
   xmlns:cc="http://creativecommons.org/ns#"
   xmlns:rdf="http://www.w3.org/1999/02/22-rdf-syntax-ns#"
   xmlns:svg="http://www.w3.org/2000/svg"
   xmlns="http://www.w3.org/2000/svg"
   xmlns:sodipodi="http://sodipodi.sourceforge.net/DTD/sodipodi-0.dtd"
   xmlns:inkscape="http://www.inkscape.org/namespaces/inkscape"
   width="286.07739"
   height="109.68228"
   id="svg3013"
   version="1.1"
   inkscape:version="0.48.2 r9819"
   sodipodi:docname="header.svg">
  <defs
     id="defs3015">
    <filter
       inkscape:label="filter2"
       id="filter4505"
       color-interpolation-filters="sRGB" />
  </defs>
  <sodipodi:namedview
     id="base"
     pagecolor="#ffffff"
     bordercolor="#666666"
     borderopacity="1.0"
     inkscape:pageopacity="0.0"
     inkscape:pageshadow="2"
     inkscape:zoom="1.5939447"
     inkscape:cx="152.04643"
     inkscape:cy="68.875609"
     inkscape:document-units="px"
     inkscape:current-layer="g3183"
     showgrid="false"
     fit-margin-top="5"
     fit-margin-left="5"
     fit-margin-right="5"
     fit-margin-bottom="5"
     inkscape:window-width="1064"
     inkscape:window-height="602"
     inkscape:window-x="1243"
     inkscape:window-y="366"
     inkscape:window-maximized="0">
    <sodipodi:guide
       position="-16.61092,-32.818719"
       orientation="0,744.09448"
       id="guide3021" />
    <sodipodi:guide
       position="727.48356,-32.818719"
       orientation="-1052.3622,0"
       id="guide3023" />
    <sodipodi:guide
       position="727.48356,1019.5435"
       orientation="0,-744.09448"
       id="guide3025" />
    <sodipodi:guide
       position="-16.61092,1019.5435"
       orientation="1052.3622,0"
       id="guide3027" />
    <sodipodi:guide
       position="-16.61092,-32.818719"
       orientation="0,600"
       id="guide3029" />
    <sodipodi:guide
       position="583.38908,-32.818719"
       orientation="-150,0"
       id="guide3031" />
    <sodipodi:guide
       position="583.38908,117.18129"
       orientation="0,-600"
       id="guide3033" />
    <sodipodi:guide
       position="-16.61092,117.18129"
       orientation="150,0"
       id="guide3035" />
  </sodipodi:namedview>
  <metadata
     id="metadata3018">
    <rdf:RDF>
      <cc:Work
         rdf:about="">
        <dc:format>image/svg+xml</dc:format>
        <dc:type
           rdf:resource="http://purl.org/dc/dcmitype/StillImage" />
        <dc:title></dc:title>
      </cc:Work>
    </rdf:RDF>
  </metadata>
  <g
     inkscape:label="Layer 1"
     inkscape:groupmode="layer"
     id="layer1"
     transform="translate(-16.61092,-909.86117)">
    <g
       id="g3973"
       transform="translate(-61.79107,826.85241)">
      <g
         style="display:inline"
         inkscape:label="bg"
         id="layer1-8" />
      <g
         inkscape:label="ocd bars"
         id="layer2" />
      <g
         style="display:inline"
         transform="matrix(1.25,0,0,-1.25,8.4088076,213.45391)"
         inkscape:label="Business_Card"
         id="g3063">







<g
   id="g4280"
   transform="matrix(0.8,0,0,-0.8,47.323664,211.9438)">
  <g
     transform="matrix(1.25,0,0,-1.25,0,325.63)"
     inkscape:label="Business_Card_Vertical"
     id="g3183">















<path
   style="font-size:medium;font-style:normal;font-variant:normal;font-weight:normal;font-stretch:normal;text-indent:0;text-align:start;text-decoration:none;line-height:normal;letter-spacing:normal;word-spacing:normal;text-transform:none;direction:ltr;block-progression:tb;writing-mode:lr-tb;text-anchor:start;baseline-shift:baseline;color:#000000;fill:#24c0eb;fill-opacity:1;stroke:none;stroke-width:0.80000001px;marker:none;visibility:visible;display:inline;overflow:visible;enable-background:accumulate;font-family:Sans;-inkscape-font-specification:Sans"
   d="M 89.96875 7.46875 L 89.96875 11.6875 L 84.78125 11.6875 L 84.78125 7.75 C 84.530147 7.7848805 84.280459 7.8343428 84.03125 7.875 L 84.03125 11.6875 L 78.875 11.6875 L 78.875 9.1875 C 78.609788 9.2780397 78.355783 9.3715097 78.09375 9.46875 L 78.09375 11.6875 L 73.28125 11.6875 C 72.866211 11.925786 72.465605 12.181457 72.0625 12.4375 L 72.1875 12.4375 L 72.1875 17.625 L 67 17.625 L 67 16.40625 C 66.738914 16.657424 66.502481 16.927686 66.25 17.1875 L 66.25 17.625 L 65.8125 17.625 C 65.582148 17.871265 65.347584 18.121565 65.125 18.375 L 66.25 18.375 L 66.25 23.5625 L 61.4375 23.5625 C 61.047177 24.240263 60.653555 24.917196 60.3125 25.625 L 60.3125 29.46875 L 58.78125 29.46875 C 58.695904 29.726987 58.610167 29.988905 58.53125 30.25 L 60.3125 30.25 L 60.3125 35.40625 L 57.4375 35.40625 C 57.404976 35.659036 57.339105 35.901657 57.3125 36.15625 L 60.3125 36.15625 L 60.3125 41.3125 L 57.1875 41.3125 C 57.201837 41.575224 57.229379 41.832746 57.25 42.09375 L 60.3125 42.09375 L 60.3125 47.28125 L 58.09375 47.28125 C 58.153107 47.520852 58.216542 47.762557 58.28125 48 L 60.3125 48 L 60.3125 53.1875 L 60.1875 53.1875 C 60.458884 53.763695 60.758454 54.349442 61.0625 54.90625 L 61.0625 53.9375 L 66.25 53.9375 L 66.25 59.125 L 63.8125 59.125 C 64.005888 59.37575 64.205687 59.59896 64.40625 59.84375 L 66.25 59.84375 L 66.25 61.90625 C 66.498898 62.162124 66.742749 62.408766 67 62.65625 L 67 59.84375 L 72.1875 59.84375 L 72.1875 65.03125 L 69.75 65.03125 C 70.085176 65.287857 70.435844 65.537751 70.78125 65.78125 L 72.1875 65.78125 L 72.1875 66.71875 C 72.434715 66.874141 72.685807 67.007477 72.9375 67.15625 L 72.9375 65.78125 L 78.09375 65.78125 L 78.09375 69.625 C 78.355543 69.722144 78.610034 69.815794 78.875 69.90625 L 78.875 65.78125 L 84.03125 65.78125 L 84.03125 70.96875 L 82.78125 70.96875 C 84.87002 71.396174 87.034873 71.625 89.25 71.625 C 91.465127 71.625 93.62998 71.396174 95.71875 70.96875 L 90.71875 70.96875 L 90.71875 65.78125 L 95.90625 65.78125 L 95.90625 70.9375 C 96.152735 70.885504 96.380636 70.807619 96.625 70.75 L 96.625 65.78125 L 101.8125 65.78125 L 101.8125 69.0625 C 102.06462 68.954947 102.31375 68.832523 102.5625 68.71875 L 102.5625 65.78125 L 107.71875 65.78125 C 108.05963 65.540773 108.38784 65.284499 108.71875 65.03125 L 108.46875 65.03125 L 108.46875 59.84375 L 113.65625 59.84375 L 113.65625 60.34375 C 114.00058 59.940168 114.33195 59.545492 114.65625 59.125 L 114.40625 59.125 L 114.40625 53.9375 L 117.90625 53.9375 C 118.03147 53.688771 118.16236 53.439882 118.28125 53.1875 L 114.40625 53.1875 L 114.40625 48 L 119.59375 48 L 119.59375 49.90625 C 119.8875 49.045781 120.15407 48.172895 120.375 47.28125 L 120.34375 47.28125 L 120.34375 42.09375 L 121.21875 42.09375 C 121.23937 41.832746 121.26691 41.575224 121.28125 41.3125 L 120.34375 41.3125 L 120.34375 36.15625 L 121.15625 36.15625 C 121.12972 35.902447 121.09491 35.658257 121.0625 35.40625 L 120.34375 35.40625 L 120.34375 31.65625 C 120.13022 30.812065 119.87271 29.972289 119.59375 29.15625 L 119.59375 29.46875 L 114.40625 29.46875 L 114.40625 24.28125 L 117.5 24.28125 C 117.3667 24.035083 117.202 23.804734 117.0625 23.5625 L 114.40625 23.5625 L 114.40625 19.65625 C 114.15663 19.34064 113.91732 19.024591 113.65625 18.71875 L 113.65625 23.5625 L 108.46875 23.5625 L 108.46875 18.375 L 113.34375 18.375 C 113.12401 18.125011 112.9148 17.868005 112.6875 17.625 L 108.46875 17.625 L 108.46875 13.84375 C 108.23283 13.666816 107.9909 13.514272 107.75 13.34375 L 107.75 17.625 L 102.5625 17.625 L 102.5625 12.4375 L 106.40625 12.4375 C 106.00606 12.183497 105.59944 11.924008 105.1875 11.6875 L 102.5625 11.6875 L 102.5625 10.34375 C 102.31567 10.230926 102.06264 10.1067 101.8125 10 L 101.8125 11.6875 L 96.625 11.6875 L 96.625 8.3125 C 96.381615 8.2551453 96.151739 8.1767768 95.90625 8.125 L 95.90625 11.6875 L 90.71875 11.6875 L 90.71875 7.5 C 90.470696 7.4888488 90.218239 7.4742371 89.96875 7.46875 z M 72.9375 12.4375 L 78.09375 12.4375 L 78.09375 17.625 L 72.9375 17.625 L 72.9375 12.4375 z M 78.875 12.4375 L 84.03125 12.4375 L 84.03125 17.625 L 78.875 17.625 L 78.875 12.4375 z M 84.78125 12.4375 L 89.96875 12.4375 L 89.96875 17.625 L 84.78125 17.625 L 84.78125 12.4375 z M 90.71875 12.4375 L 95.90625 12.4375 L 95.90625 17.625 L 90.71875 17.625 L 90.71875 12.4375 z M 96.625 12.4375 L 101.8125 12.4375 L 101.8125 17.625 L 96.625 17.625 L 96.625 12.4375 z M 67 18.375 L 72.1875 18.375 L 72.1875 23.5625 L 67 23.5625 L 67 18.375 z M 72.9375 18.375 L 78.09375 18.375 L 78.09375 23.5625 L 72.9375 23.5625 L 72.9375 18.375 z M 78.875 18.375 L 84.03125 18.375 L 84.03125 23.5625 L 78.875 23.5625 L 78.875 18.375 z M 84.78125 18.375 L 89.96875 18.375 L 89.96875 23.5625 L 84.78125 23.5625 L 84.78125 18.375 z M 90.71875 18.375 L 95.90625 18.375 L 95.90625 23.5625 L 90.71875 23.5625 L 90.71875 18.375 z M 96.625 18.375 L 101.8125 18.375 L 101.8125 23.5625 L 96.625 23.5625 L 96.625 18.375 z M 102.5625 18.375 L 107.75 18.375 L 107.75 23.5625 L 102.5625 23.5625 L 102.5625 18.375 z M 61.0625 24.28125 L 66.25 24.28125 L 66.25 29.46875 L 61.0625 29.46875 L 61.0625 24.28125 z M 67 24.28125 L 72.1875 24.28125 L 72.1875 29.46875 L 67 29.46875 L 67 24.28125 z M 72.9375 24.28125 L 78.09375 24.28125 L 78.09375 29.46875 L 72.9375 29.46875 L 72.9375 24.28125 z M 78.875 24.28125 L 84.03125 24.28125 L 84.03125 29.46875 L 78.875 29.46875 L 78.875 24.28125 z M 84.78125 24.28125 L 89.96875 24.28125 L 89.96875 29.46875 L 84.78125 29.46875 L 84.78125 24.28125 z M 90.71875 24.28125 L 95.90625 24.28125 L 95.90625 29.46875 L 90.71875 29.46875 L 90.71875 24.28125 z M 96.625 24.28125 L 101.8125 24.28125 L 101.8125 29.46875 L 96.625 29.46875 L 96.625 24.28125 z M 102.5625 24.28125 L 107.75 24.28125 L 107.75 29.46875 L 102.5625 29.46875 L 102.5625 24.28125 z M 108.46875 24.28125 L 113.65625 24.28125 L 113.65625 29.46875 L 108.46875 29.46875 L 108.46875 24.28125 z M 61.0625 30.25 L 66.25 30.25 L 66.25 35.40625 L 61.0625 35.40625 L 61.0625 30.25 z M 67 30.25 L 72.1875 30.25 L 72.1875 35.40625 L 67 35.40625 L 67 30.25 z M 72.9375 30.25 L 78.09375 30.25 L 78.09375 35.40625 L 72.9375 35.40625 L 72.9375 30.25 z M 78.875 30.25 L 84.03125 30.25 L 84.03125 35.40625 L 78.875 35.40625 L 78.875 30.25 z M 84.78125 30.25 L 89.96875 30.25 L 89.96875 35.40625 L 84.78125 35.40625 L 84.78125 30.25 z M 90.71875 30.25 L 95.90625 30.25 L 95.90625 35.40625 L 90.71875 35.40625 L 90.71875 30.25 z M 96.625 30.25 L 101.8125 30.25 L 101.8125 35.40625 L 96.625 35.40625 L 96.625 30.25 z M 102.5625 30.25 L 107.75 30.25 L 107.75 35.40625 L 102.5625 35.40625 L 102.5625 30.25 z M 108.46875 30.25 L 113.65625 30.25 L 113.65625 35.40625 L 108.46875 35.40625 L 108.46875 30.25 z M 114.40625 30.25 L 119.59375 30.25 L 119.59375 35.40625 L 114.40625 35.40625 L 114.40625 30.25 z M 61.0625 36.15625 L 66.25 36.15625 L 66.25 41.3125 L 61.0625 41.3125 L 61.0625 36.15625 z M 67 36.15625 L 72.1875 36.15625 L 72.1875 41.3125 L 67 41.3125 L 67 36.15625 z M 72.9375 36.15625 L 78.09375 36.15625 L 78.09375 41.3125 L 72.9375 41.3125 L 72.9375 36.15625 z M 78.875 36.15625 L 84.03125 36.15625 L 84.03125 41.3125 L 78.875 41.3125 L 78.875 36.15625 z M 84.78125 36.15625 L 89.96875 36.15625 L 89.96875 41.3125 L 84.78125 41.3125 L 84.78125 36.15625 z M 90.71875 36.15625 L 95.90625 36.15625 L 95.90625 41.3125 L 90.71875 41.3125 L 90.71875 36.15625 z M 96.625 36.15625 L 101.8125 36.15625 L 101.8125 41.3125 L 96.625 41.3125 L 96.625 36.15625 z M 102.5625 36.15625 L 107.75 36.15625 L 107.75 41.3125 L 102.5625 41.3125 L 102.5625 36.15625 z M 108.46875 36.15625 L 113.65625 36.15625 L 113.65625 41.3125 L 108.46875 41.3125 L 108.46875 36.15625 z M 114.40625 36.15625 L 119.59375 36.15625 L 119.59375 41.3125 L 114.40625 41.3125 L 114.40625 36.15625 z M 61.0625 42.09375 L 66.25 42.09375 L 66.25 47.28125 L 61.0625 47.28125 L 61.0625 42.09375 z M 67 42.09375 L 72.1875 42.09375 L 72.1875 47.28125 L 67 47.28125 L 67 42.09375 z M 72.9375 42.09375 L 78.09375 42.09375 L 78.09375 47.28125 L 72.9375 47.28125 L 72.9375 42.09375 z M 78.875 42.09375 L 84.03125 42.09375 L 84.03125 47.28125 L 78.875 47.28125 L 78.875 42.09375 z M 84.78125 42.09375 L 89.96875 42.09375 L 89.96875 47.28125 L 84.78125 47.28125 L 84.78125 42.09375 z M 90.71875 42.09375 L 95.90625 42.09375 L 95.90625 47.28125 L 90.71875 47.28125 L 90.71875 42.09375 z M 96.625 42.09375 L 101.8125 42.09375 L 101.8125 47.28125 L 96.625 47.28125 L 96.625 42.09375 z M 102.5625 42.09375 L 107.75 42.09375 L 107.75 47.28125 L 102.5625 47.28125 L 102.5625 42.09375 z M 108.46875 42.09375 L 113.65625 42.09375 L 113.65625 47.28125 L 108.46875 47.28125 L 108.46875 42.09375 z M 114.40625 42.09375 L 119.59375 42.09375 L 119.59375 47.28125 L 114.40625 47.28125 L 114.40625 42.09375 z M 61.0625 48 L 66.25 48 L 66.25 53.1875 L 61.0625 53.1875 L 61.0625 48 z M 67 48 L 72.1875 48 L 72.1875 53.1875 L 67 53.1875 L 67 48 z M 72.9375 48 L 78.09375 48 L 78.09375 53.1875 L 72.9375 53.1875 L 72.9375 48 z M 78.875 48 L 84.03125 48 L 84.03125 53.1875 L 78.875 53.1875 L 78.875 48 z M 84.78125 48 L 89.96875 48 L 89.96875 53.1875 L 84.78125 53.1875 L 84.78125 48 z M 90.71875 48 L 95.90625 48 L 95.90625 53.1875 L 90.71875 53.1875 L 90.71875 48 z M 96.625 48 L 101.8125 48 L 101.8125 53.1875 L 96.625 53.1875 L 96.625 48 z M 102.5625 48 L 107.75 48 L 107.75 53.1875 L 102.5625 53.1875 L 102.5625 48 z M 108.46875 48 L 113.65625 48 L 113.65625 53.1875 L 108.46875 53.1875 L 108.46875 48 z M 67 53.9375 L 72.1875 53.9375 L 72.1875 59.125 L 67 59.125 L 67 53.9375 z M 72.9375 53.9375 L 78.09375 53.9375 L 78.09375 59.125 L 72.9375 59.125 L 72.9375 53.9375 z M 78.875 53.9375 L 84.03125 53.9375 L 84.03125 59.125 L 78.875 59.125 L 78.875 53.9375 z M 84.78125 53.9375 L 89.96875 53.9375 L 89.96875 59.125 L 84.78125 59.125 L 84.78125 53.9375 z M 90.71875 53.9375 L 95.90625 53.9375 L 95.90625 59.125 L 90.71875 59.125 L 90.71875 53.9375 z M 96.625 53.9375 L 101.8125 53.9375 L 101.8125 59.125 L 96.625 59.125 L 96.625 53.9375 z M 102.5625 53.9375 L 107.75 53.9375 L 107.75 59.125 L 102.5625 59.125 L 102.5625 53.9375 z M 108.46875 53.9375 L 113.65625 53.9375 L 113.65625 59.125 L 108.46875 59.125 L 108.46875 53.9375 z M 72.9375 59.84375 L 78.09375 59.84375 L 78.09375 65.03125 L 72.9375 65.03125 L 72.9375 59.84375 z M 78.875 59.84375 L 84.03125 59.84375 L 84.03125 65.03125 L 78.875 65.03125 L 78.875 59.84375 z M 84.78125 59.84375 L 89.96875 59.84375 L 89.96875 65.03125 L 84.78125 65.03125 L 84.78125 59.84375 z M 90.71875 59.84375 L 95.90625 59.84375 L 95.90625 65.03125 L 90.71875 65.03125 L 90.71875 59.84375 z M 96.625 59.84375 L 101.8125 59.84375 L 101.8125 65.03125 L 96.625 65.03125 L 96.625 59.84375 z M 102.5625 59.84375 L 107.75 59.84375 L 107.75 65.03125 L 102.5625 65.03125 L 102.5625 59.84375 z M 84.78125 65.78125 L 89.96875 65.78125 L 89.96875 70.96875 L 84.78125 70.96875 L 84.78125 65.78125 z "
   transform="matrix(0.8,0,0,-0.8,8.6708819,152.91632)"
   id="path4661" />
<g
   transform="scale(1,-1)"
   style="font-size:51.14755249000000248px;font-style:normal;font-weight:normal;line-height:125%;letter-spacing:0px;word-spacing:0px;fill:#ffffff;fill-opacity:1;stroke:none;font-family:Sans"
   id="text4038">
  <path
     d="m 47.19548,-136.2573 1.15082,-0.23016 -0.07672,-0.61377 c -2.608523,-13.88655 -24.704276,-15.19082 -32.529844,-5.06361 -1.994752,2.60852 -2.838688,5.7541 -2.531803,8.97639 1.380982,20.02425 31.685912,5.44723 35.138368,21.40525 2.224916,10.66426 -7.902306,16.725254 -17.262299,16.725254 -7.288519,0 -16.264922,-4.066239 -17.108856,-12.121974 l -0.07672,-0.53705 -1.227542,0.15345 0.07672,0.53705 c 0.920655,8.669498 10.434108,13.119344 18.259676,13.119344 10.203926,0 21.021641,-6.751484 18.566561,-18.106234 -3.68262,-17.18556 -33.834107,-2.4551 -35.21509,-21.25181 -0.230163,-2.99213 0.46033,-5.83082 2.378362,-8.20918 3.222292,-4.21967 8.9764,-6.06099 14.040003,-6.13771 4.833439,-0.0767 10.127219,1.38099 13.426232,4.91017 1.534425,1.68787 2.455083,3.6059 2.915411,5.83082 l 0.07672,0.61377"
     style="font-size:76.72132874000000413px;font-variant:normal;font-stretch:normal;letter-spacing:-1.27868878999999991px;font-family:Code Light;-inkscape-font-specification:Code Light;fill:#ffffff"
     id="path4922" />
  <path
     d="m 105.9764,-121.29664 c 0,7.28852 -2.91541,13.80984 -7.595408,18.56656 -4.756717,4.83344 -11.354764,7.825576 -18.566561,7.825576 -7.211798,0 -13.733123,-2.992136 -18.489841,-7.825576 -4.679996,-4.75672 -7.672132,-11.27804 -7.672132,-18.56656 0,-7.28852 2.992136,-13.80984 7.672132,-18.56656 4.756718,-4.83344 11.278043,-7.82558 18.489841,-7.82558 7.211797,0 13.809844,2.99214 18.566561,7.82558 4.679998,4.75672 7.595408,11.27804 7.595408,18.56656 m -53.551484,0 c 0,7.5954 3.14558,14.50034 8.05574,19.48722 4.91016,5.063599 11.815092,8.132458 19.333775,8.132458 7.595404,0 14.423614,-3.068859 19.410496,-8.132458 4.910163,-4.98688 8.055743,-11.89182 8.055743,-19.48722 0,-7.5954 -3.14558,-14.50034 -8.055743,-19.48722 -4.986882,-5.0636 -11.815092,-8.13246 -19.410496,-8.13246 -7.518683,0 -14.423615,3.06886 -19.333775,8.13246 -4.91016,4.98688 -8.05574,11.89182 -8.05574,19.48722"
     style="font-size:76.72132874000000413px;font-variant:normal;font-stretch:normal;letter-spacing:-1.27868878999999991px;font-family:Code Light;-inkscape-font-specification:Code Light;fill:#ffffff"
     id="path4924" />
  <path
     d="m 112.50891,-94.444176 0,-51.249844 35.44525,51.249844 1.22754,0 0,-53.704934 -1.15082,0 0,51.556737 -35.67542,-51.556737 -1.07409,-0.0767 0,53.781654 1.22754,0"
     style="font-size:76.72132874000000413px;font-variant:normal;font-stretch:normal;letter-spacing:-1.27868878999999991px;font-family:Code Light;-inkscape-font-specification:Code Light;fill:#ffffff"
     id="path4926" />
  <path
     d="m 173.97988,-147.30517 13.11934,33.68066 -26.16197,0 13.04263,-33.68066 m 20.94492,52.860994 1.30426,0 -21.55869,-54.472144 -1.30426,0 -21.5587,54.472144 1.30427,0 7.28852,-18.029514 27.15935,0 7.36525,18.029514"
     style="font-size:76.72132874000000413px;font-variant:normal;font-stretch:normal;letter-spacing:-1.27868878999999991px;font-family:Code Light;-inkscape-font-specification:Code Light;fill:#ffffff"
     id="path4928" />
  <path
     d="m 200.08231,-146.92156 17.41574,0 c 19.94753,0 19.94753,29.00066 0,29.00066 l -10.4341,0 0,1.15082 24.70427,22.325904 1.76459,0 -24.70427,-22.325904 8.66951,0 c 21.48195,0 21.48195,-31.37903 0,-31.37903 l -17.95279,0 -0.61377,0 0,0.61377 0,53.091164 1.15082,0 0,-52.477384"
     style="font-size:76.72132874000000413px;font-variant:normal;font-stretch:normal;letter-spacing:-1.27868878999999991px;font-family:Code Light;-inkscape-font-specification:Code Light;fill:#ffffff"
     id="path4930" />
</g>




<text
   xml:space="preserve"
   style="font-size:8px;font-style:normal;font-weight:normal;line-height:125%;letter-spacing:0px;word-spacing:0px;fill:#000000;fill-opacity:1;stroke:none;font-family:Sans"
   x="60.089535"
   y="-72.386116"
   id="text3009"
   sodipodi:linespacing="125%"
   transform="scale(1,-1)"><tspan
     sodipodi:role="line"
     id="tspan3011"
     x="60.089535"
     y="-72.386116"
     style="font-size:7.19999981px;font-style:normal;font-variant:normal;font-weight:normal;font-stretch:normal;letter-spacing:0px;fill:#e6e6e6;font-family:Helvetica CY;-inkscape-font-specification:Helvetica CY"><tspan
       style="fill:#999999"
       id="tspan4907">[ </tspan><tspan
       id="tspan4917"
       style="fill:#b3b3b3">a prototype inspired by squidi's <tspan
   style="fill:#ffffff"
   id="tspan4919">mechanic #85</tspan> ]</tspan></tspan></text>















<path
   transform="matrix(1.2786888,0,0,-1.2786888,79.767955,325.66912)"
   d="m -6.0978595,154.21918 c 0,0.50516 -0.4095157,0.91468 -0.9146789,0.91468 -0.5051633,0 -0.914679,-0.40952 -0.914679,-0.91468 0,-0.50517 0.4095157,-0.91468 0.914679,-0.91468 0.5051632,0 0.9146789,0.40951 0.9146789,0.91468 z"
   sodipodi:ry="0.91467893"
   sodipodi:rx="0.91467893"
   sodipodi:cy="154.21918"
   sodipodi:cx="-7.0125384"
   id="path4705"
   style="fill:#24c0eb;fill-opacity:1;stroke:#24c0eb;stroke-width:0;stroke-miterlimit:4;stroke-opacity:1;stroke-dasharray:none"
   sodipodi:type="arc" />
<path
   sodipodi:type="arc"
   style="fill:#b6ff00;fill-opacity:1;stroke:#24c0eb;stroke-width:0;stroke-miterlimit:4;stroke-opacity:1;stroke-dasharray:none"
   id="path4707"
   sodipodi:cx="-7.0125384"
   sodipodi:cy="154.21918"
   sodipodi:rx="0.91467893"
   sodipodi:ry="0.91467893"
   d="m -6.0978595,154.21918 c 0,0.50516 -0.4095157,0.91468 -0.9146789,0.91468 -0.5051633,0 -0.914679,-0.40952 -0.914679,-0.91468 0,-0.50517 0.4095157,-0.91468 0.914679,-0.91468 0.5051632,0 0.9146789,0.40951 0.9146789,0.91468 z"
   transform="matrix(1.2786888,0,0,-1.2786888,93.992782,306.81296)" />
<path
   transform="matrix(1.2786888,0,0,1.2786888,112.62841,-73.579439)"
   d="m -6.0978595,154.21918 a 0.91467893,0.91467893 0 1 1 -1.8293579,0 0.91467893,0.91467893 0 1 1 1.8293579,0 z"
   sodipodi:ry="0.91467893"
   sodipodi:rx="0.91467893"
   sodipodi:cy="154.21918"
   sodipodi:cx="-7.0125384"
   id="path4709"
   style="fill:#ff0092;fill-opacity:1;stroke:#24c0eb;stroke-width:0;stroke-miterlimit:4;stroke-opacity:1;stroke-dasharray:none"
   sodipodi:type="arc" />
</g>
</g>
</g>
    </g>
  </g>
</svg>
