<?xml version="1.0" encoding="UTF-8" standalone="no"?>
<!-- Created with Inkscape (http://www.inkscape.org/) -->

<svg
   xmlns:dc="http://purl.org/dc/elements/1.1/"
   xmlns:cc="http://creativecommons.org/ns#"
   xmlns:rdf="http://www.w3.org/1999/02/22-rdf-syntax-ns#"
   xmlns:svg="http://www.w3.org/2000/svg"
   xmlns="http://www.w3.org/2000/svg"
   xmlns:xlink="http://www.w3.org/1999/xlink"
   xmlns:sodipodi="http://sodipodi.sourceforge.net/DTD/sodipodi-0.dtd"
   xmlns:inkscape="http://www.inkscape.org/namespaces/inkscape"
   width="286.17328"
   height="79.049194"
   id="svg3013"
   version="1.1"
   inkscape:version="0.48.2 r9819"
   sodipodi:docname="sonar_header.svg">
  <defs
     id="defs3015">
    <linearGradient
       inkscape:collect="always"
       id="linearGradient3921">
      <stop
         style="stop-color:#24c0eb;stop-opacity:1;"
         offset="0"
         id="stop3923" />
      <stop
         style="stop-color:#24c0eb;stop-opacity:0;"
         offset="1"
         id="stop3925" />
    </linearGradient>
    <filter
       inkscape:label="filter2"
       id="filter4505"
       color-interpolation-filters="sRGB" />
    <radialGradient
       inkscape:collect="always"
       xlink:href="#linearGradient3921"
       id="radialGradient3927"
       cx="89.2344"
       cy="39.546875"
       fx="89.2344"
       fy="39.546875"
       r="32.0469"
       gradientTransform="matrix(1,0,0,1.0009744,0,-0.03853262)"
       gradientUnits="userSpaceOnUse" />
  </defs>
  <sodipodi:namedview
     id="base"
     pagecolor="#ffffff"
     bordercolor="#666666"
     borderopacity="1.0"
     inkscape:pageopacity="0.0"
     inkscape:pageshadow="2"
     inkscape:zoom="6.406729"
     inkscape:cx="68.988446"
     inkscape:cy="47.414407"
     inkscape:document-units="px"
     inkscape:current-layer="g3183"
     showgrid="false"
     fit-margin-top="5"
     fit-margin-left="5"
     fit-margin-right="5"
     fit-margin-bottom="5"
     inkscape:window-width="1064"
     inkscape:window-height="602"
     inkscape:window-x="1243"
     inkscape:window-y="366"
     inkscape:window-maximized="0">
    <sodipodi:guide
       position="-16.610923,-63.451803"
       orientation="0,744.09448"
       id="guide3021" />
    <sodipodi:guide
       position="727.48356,-63.451803"
       orientation="-1052.3622,0"
       id="guide3023" />
    <sodipodi:guide
       position="727.48356,988.91042"
       orientation="0,-744.09448"
       id="guide3025" />
    <sodipodi:guide
       position="-16.610923,988.91042"
       orientation="1052.3622,0"
       id="guide3027" />
    <sodipodi:guide
       position="-16.610923,-63.451803"
       orientation="0,600"
       id="guide3029" />
    <sodipodi:guide
       position="583.38908,-63.451803"
       orientation="-150,0"
       id="guide3031" />
    <sodipodi:guide
       position="583.38908,86.548206"
       orientation="0,-600"
       id="guide3033" />
    <sodipodi:guide
       position="-16.610923,86.548206"
       orientation="150,0"
       id="guide3035" />
  </sodipodi:namedview>
  <metadata
     id="metadata3018">
    <rdf:RDF>
      <cc:Work
         rdf:about="">
        <dc:format>image/svg+xml</dc:format>
        <dc:type
           rdf:resource="http://purl.org/dc/dcmitype/StillImage" />
        <dc:title />
      </cc:Work>
    </rdf:RDF>
  </metadata>
  <g
     inkscape:label="Layer 1"
     inkscape:groupmode="layer"
     id="layer1"
     transform="translate(-16.610923,-909.86117)">
    <g
       id="g3973"
       transform="translate(-61.79107,826.85241)">
      <g
         style="display:inline"
         inkscape:label="bg"
         id="layer1-8" />
      <g
         inkscape:label="ocd bars"
         id="layer2" />
      <g
         style="display:inline"
         transform="matrix(1.25,0,0,-1.25,8.4088076,213.45391)"
         inkscape:label="Business_Card"
         id="g3063">
        <g
           id="g4280"
           transform="matrix(0.8,0,0,-0.8,47.323664,211.9438)">
          <g
             transform="matrix(1.25,0,0,-1.25,0,325.63)"
             inkscape:label="Business_Card_Vertical"
             id="g3183">
            <path
               style="font-size:medium;font-style:normal;font-variant:normal;font-weight:normal;font-stretch:normal;text-indent:0;text-align:start;text-decoration:none;line-height:normal;letter-spacing:normal;word-spacing:normal;text-transform:none;direction:ltr;block-progression:tb;writing-mode:lr-tb;text-anchor:start;baseline-shift:baseline;color:#000000;fill:url(#radialGradient3927);fill-opacity:1;stroke:none;stroke-width:0.80000000999999998px;marker:none;visibility:visible;display:inline;overflow:visible;enable-background:accumulate;font-family:Sans;-inkscape-font-specification:Sans"
               d="m 89.96875,7.46875 0,4.21875 -5.1875,0 0,-3.9375 c -0.251103,0.03488 -0.500791,0.084343 -0.75,0.125 l 0,3.8125 -5.15625,0 0,-2.5 c -0.265212,0.09054 -0.519217,0.1840097 -0.78125,0.28125 l 0,2.21875 -4.8125,0 c -0.415039,0.238286 -0.815645,0.493957 -1.21875,0.75 l 0.125,0 0,5.1875 -5.1875,0 0,-1.21875 c -0.261086,0.251174 -0.497519,0.521436 -0.75,0.78125 l 0,0.4375 -0.4375,0 c -0.230352,0.246265 -0.464916,0.496565 -0.6875,0.75 l 1.125,0 0,5.1875 -4.8125,0 c -0.390323,0.677763 -0.783945,1.354696 -1.125,2.0625 l 0,3.84375 -1.53125,0 c -0.08535,0.258237 -0.171083,0.520155 -0.25,0.78125 l 1.78125,0 0,5.15625 -2.875,0 c -0.03252,0.252786 -0.09839,0.495407 -0.125,0.75 l 3,0 0,5.15625 -3.125,0 c 0.01434,0.262724 0.04188,0.520246 0.0625,0.78125 l 3.0625,0 0,5.1875 -2.21875,0 c 0.05936,0.239602 0.122792,0.481307 0.1875,0.71875 l 2.03125,0 0,5.1875 -0.125,0 c 0.271384,0.576195 0.570954,1.161942 0.875,1.71875 l 0,-0.96875 5.1875,0 0,5.1875 -2.4375,0 c 0.193388,0.25075 0.393187,0.47396 0.59375,0.71875 l 1.84375,0 0,2.0625 c 0.248898,0.255874 0.492749,0.502516 0.75,0.75 l 0,-2.8125 5.1875,0 0,5.1875 -2.4375,0 c 0.335176,0.256607 0.685844,0.506501 1.03125,0.75 l 1.40625,0 0,0.9375 c 0.247215,0.155391 0.498307,0.288727 0.75,0.4375 l 0,-1.375 5.15625,0 0,3.84375 c 0.261793,0.09714 0.516284,0.190794 0.78125,0.28125 l 0,-4.125 5.15625,0 0,5.1875 -1.25,0 c 2.08877,0.427424 4.253623,0.65625 6.46875,0.65625 2.215127,0 4.37998,-0.228826 6.46875,-0.65625 l -5,0 0,-5.1875 5.1875,0 0,5.15625 c 0.246485,-0.052 0.474386,-0.129881 0.71875,-0.1875 l 0,-4.96875 5.1875,0 0,3.28125 c 0.25212,-0.107553 0.50125,-0.229977 0.75,-0.34375 l 0,-2.9375 5.15625,0 c 0.34088,-0.240477 0.66909,-0.496751 1,-0.75 l -0.25,0 0,-5.1875 5.1875,0 0,0.5 c 0.34433,-0.403582 0.6757,-0.798258 1,-1.21875 l -0.25,0 0,-5.1875 3.5,0 c 0.12522,-0.248729 0.25611,-0.497618 0.375,-0.75 l -3.875,0 0,-5.1875 5.1875,0 0,1.90625 c 0.29375,-0.860469 0.56032,-1.733355 0.78125,-2.625 l -0.0312,0 0,-5.1875 0.875,0 c 0.0206,-0.261004 0.0482,-0.518526 0.0625,-0.78125 l -0.9375,0 0,-5.15625 0.8125,0 c -0.0265,-0.253803 -0.0613,-0.497993 -0.0937,-0.75 l -0.71875,0 0,-3.75 c -0.21353,-0.844185 -0.47104,-1.683961 -0.75,-2.5 l 0,0.3125 -5.1875,0 0,-5.1875 3.09375,0 c -0.1333,-0.246167 -0.298,-0.476516 -0.4375,-0.71875 l -2.65625,0 0,-3.90625 c -0.24962,-0.31561 -0.48893,-0.631659 -0.75,-0.9375 l 0,4.84375 -5.1875,0 0,-5.1875 4.875,0 c -0.21974,-0.249989 -0.42895,-0.506995 -0.65625,-0.75 l -4.21875,0 0,-3.78125 c -0.23592,-0.176934 -0.47785,-0.329478 -0.71875,-0.5 l 0,4.28125 -5.1875,0 0,-5.1875 3.84375,0 c -0.40019,-0.254003 -0.80681,-0.513492 -1.21875,-0.75 l -2.625,0 0,-1.34375 C 102.31567,10.230926 102.06264,10.1067 101.8125,10 l 0,1.6875 -5.1875,0 0,-3.375 C 96.381615,8.2551453 96.151739,8.1767768 95.90625,8.125 l 0,3.5625 -5.1875,0 0,-4.1875 c -0.248054,-0.011151 -0.500511,-0.025763 -0.75,-0.03125 z m -17.03125,4.96875 5.15625,0 0,5.1875 -5.15625,0 0,-5.1875 z m 5.9375,0 5.15625,0 0,5.1875 -5.15625,0 0,-5.1875 z m 5.90625,0 5.1875,0 0,5.1875 -5.1875,0 0,-5.1875 z m 5.9375,0 5.1875,0 0,5.1875 -5.1875,0 0,-5.1875 z m 5.90625,0 5.1875,0 0,5.1875 -5.1875,0 0,-5.1875 z M 67,18.375 l 5.1875,0 0,5.1875 -5.1875,0 0,-5.1875 z m 5.9375,0 5.15625,0 0,5.1875 -5.15625,0 0,-5.1875 z m 5.9375,0 5.15625,0 0,5.1875 -5.15625,0 0,-5.1875 z m 5.90625,0 5.1875,0 0,5.1875 -5.1875,0 0,-5.1875 z m 5.9375,0 5.1875,0 0,5.1875 -5.1875,0 0,-5.1875 z m 5.90625,0 5.1875,0 0,5.1875 -5.1875,0 0,-5.1875 z m 5.9375,0 5.1875,0 0,5.1875 -5.1875,0 0,-5.1875 z m -41.5,5.90625 5.1875,0 0,5.1875 -5.1875,0 0,-5.1875 z m 5.9375,0 5.1875,0 0,5.1875 -5.1875,0 0,-5.1875 z m 5.9375,0 5.15625,0 0,5.1875 -5.15625,0 0,-5.1875 z m 5.9375,0 5.15625,0 0,5.1875 -5.15625,0 0,-5.1875 z m 5.90625,0 5.1875,0 0,5.1875 -5.1875,0 0,-5.1875 z m 5.9375,0 5.1875,0 0,5.1875 -5.1875,0 0,-5.1875 z m 5.90625,0 5.1875,0 0,5.1875 -5.1875,0 0,-5.1875 z m 5.9375,0 5.1875,0 0,5.1875 -5.1875,0 0,-5.1875 z m 5.90625,0 5.1875,0 0,5.1875 -5.1875,0 0,-5.1875 z M 61.0625,30.25 l 5.1875,0 0,5.15625 -5.1875,0 0,-5.15625 z m 5.9375,0 5.1875,0 0,5.15625 -5.1875,0 0,-5.15625 z m 5.9375,0 5.15625,0 0,5.15625 -5.15625,0 0,-5.15625 z m 5.9375,0 5.15625,0 0,5.15625 -5.15625,0 0,-5.15625 z m 5.90625,0 5.1875,0 0,5.15625 -5.1875,0 0,-5.15625 z m 5.9375,0 5.1875,0 0,5.15625 -5.1875,0 0,-5.15625 z m 5.90625,0 5.1875,0 0,5.15625 -5.1875,0 0,-5.15625 z m 5.9375,0 5.1875,0 0,5.15625 -5.1875,0 0,-5.15625 z m 5.90625,0 5.1875,0 0,5.15625 -5.1875,0 0,-5.15625 z m 5.9375,0 5.1875,0 0,5.15625 -5.1875,0 0,-5.15625 z m -53.34375,5.90625 5.1875,0 0,5.15625 -5.1875,0 0,-5.15625 z m 5.9375,0 5.1875,0 0,5.15625 -5.1875,0 0,-5.15625 z m 5.9375,0 5.15625,0 0,5.15625 -5.15625,0 0,-5.15625 z m 5.9375,0 5.15625,0 0,5.15625 -5.15625,0 0,-5.15625 z m 5.90625,0 5.1875,0 0,5.15625 -5.1875,0 0,-5.15625 z m 5.9375,0 5.1875,0 0,5.15625 -5.1875,0 0,-5.15625 z m 5.90625,0 5.1875,0 0,5.15625 -5.1875,0 0,-5.15625 z m 5.9375,0 5.1875,0 0,5.15625 -5.1875,0 0,-5.15625 z m 5.90625,0 5.1875,0 0,5.15625 -5.1875,0 0,-5.15625 z m 5.9375,0 5.1875,0 0,5.15625 -5.1875,0 0,-5.15625 z m -53.34375,5.9375 5.1875,0 0,5.1875 -5.1875,0 0,-5.1875 z m 5.9375,0 5.1875,0 0,5.1875 -5.1875,0 0,-5.1875 z m 5.9375,0 5.15625,0 0,5.1875 -5.15625,0 0,-5.1875 z m 5.9375,0 5.15625,0 0,5.1875 -5.15625,0 0,-5.1875 z m 5.90625,0 5.1875,0 0,5.1875 -5.1875,0 0,-5.1875 z m 5.9375,0 5.1875,0 0,5.1875 -5.1875,0 0,-5.1875 z m 5.90625,0 5.1875,0 0,5.1875 -5.1875,0 0,-5.1875 z m 5.9375,0 5.1875,0 0,5.1875 -5.1875,0 0,-5.1875 z m 5.90625,0 5.1875,0 0,5.1875 -5.1875,0 0,-5.1875 z m 5.9375,0 5.1875,0 0,5.1875 -5.1875,0 0,-5.1875 z M 61.0625,48 l 5.1875,0 0,5.1875 -5.1875,0 0,-5.1875 z M 67,48 l 5.1875,0 0,5.1875 -5.1875,0 L 67,48 z m 5.9375,0 5.15625,0 0,5.1875 -5.15625,0 0,-5.1875 z m 5.9375,0 5.15625,0 0,5.1875 -5.15625,0 0,-5.1875 z m 5.90625,0 5.1875,0 0,5.1875 -5.1875,0 0,-5.1875 z m 5.9375,0 5.1875,0 0,5.1875 -5.1875,0 0,-5.1875 z m 5.90625,0 5.1875,0 0,5.1875 -5.1875,0 0,-5.1875 z m 5.9375,0 5.1875,0 0,5.1875 -5.1875,0 0,-5.1875 z m 5.90625,0 5.1875,0 0,5.1875 -5.1875,0 0,-5.1875 z M 67,53.9375 l 5.1875,0 0,5.1875 -5.1875,0 0,-5.1875 z m 5.9375,0 5.15625,0 0,5.1875 -5.15625,0 0,-5.1875 z m 5.9375,0 5.15625,0 0,5.1875 -5.15625,0 0,-5.1875 z m 5.90625,0 5.1875,0 0,5.1875 -5.1875,0 0,-5.1875 z m 5.9375,0 5.1875,0 0,5.1875 -5.1875,0 0,-5.1875 z m 5.90625,0 5.1875,0 0,5.1875 -5.1875,0 0,-5.1875 z m 5.9375,0 5.1875,0 0,5.1875 -5.1875,0 0,-5.1875 z m 5.90625,0 5.1875,0 0,5.1875 -5.1875,0 0,-5.1875 z m -35.53125,5.90625 5.15625,0 0,5.1875 -5.15625,0 0,-5.1875 z m 5.9375,0 5.15625,0 0,5.1875 -5.15625,0 0,-5.1875 z m 5.90625,0 5.1875,0 0,5.1875 -5.1875,0 0,-5.1875 z m 5.9375,0 5.1875,0 0,5.1875 -5.1875,0 0,-5.1875 z m 5.90625,0 5.1875,0 0,5.1875 -5.1875,0 0,-5.1875 z m 5.9375,0 5.1875,0 0,5.1875 -5.1875,0 0,-5.1875 z m -17.78125,5.9375 5.1875,0 0,5.1875 -5.1875,0 0,-5.1875 z"
               transform="matrix(0.8,0,0,-0.8,8.6708819,152.91632)"
               id="path4661"
               inkscape:connector-curvature="0" />
            <g
               transform="scale(1,-1)"
               style="font-size:51.14755249px;font-style:normal;font-weight:normal;line-height:125%;letter-spacing:0px;word-spacing:0px;fill:#ffffff;fill-opacity:1;stroke:none;font-family:Sans"
               id="text4038">
              <path
                 d="m 47.19548,-136.2573 1.15082,-0.23016 -0.07672,-0.61377 c -2.608523,-13.88655 -24.704276,-15.19082 -32.529844,-5.06361 -1.994752,2.60852 -2.838688,5.7541 -2.531803,8.97639 1.380982,20.02425 31.685912,5.44723 35.138368,21.40525 2.224916,10.66426 -7.902306,16.725254 -17.262299,16.725254 -7.288519,0 -16.264922,-4.066239 -17.108856,-12.121974 l -0.07672,-0.53705 -1.227542,0.15345 0.07672,0.53705 c 0.920655,8.669498 10.434108,13.119344 18.259676,13.119344 10.203926,0 21.021641,-6.751484 18.566561,-18.106234 -3.68262,-17.18556 -33.834107,-2.4551 -35.21509,-21.25181 -0.230163,-2.99213 0.46033,-5.83082 2.378362,-8.20918 3.222292,-4.21967 8.9764,-6.06099 14.040003,-6.13771 4.833439,-0.0767 10.127219,1.38099 13.426232,4.91017 1.534425,1.68787 2.455083,3.6059 2.915411,5.83082 l 0.07672,0.61377"
                 style="font-size:76.72132874px;font-variant:normal;font-stretch:normal;letter-spacing:-1.27868879px;fill:#ffffff;font-family:Code Light;-inkscape-font-specification:Code Light"
                 id="path4922"
                 inkscape:connector-curvature="0" />
              <path
                 d="m 105.9764,-121.29664 c 0,7.28852 -2.91541,13.80984 -7.595408,18.56656 -4.756717,4.83344 -11.354764,7.825576 -18.566561,7.825576 -7.211798,0 -13.733123,-2.992136 -18.489841,-7.825576 -4.679996,-4.75672 -7.672132,-11.27804 -7.672132,-18.56656 0,-7.28852 2.992136,-13.80984 7.672132,-18.56656 4.756718,-4.83344 11.278043,-7.82558 18.489841,-7.82558 7.211797,0 13.809844,2.99214 18.566561,7.82558 4.679998,4.75672 7.595408,11.27804 7.595408,18.56656 m -53.551484,0 c 0,7.5954 3.14558,14.50034 8.05574,19.48722 4.91016,5.063599 11.815092,8.132458 19.333775,8.132458 7.595404,0 14.423614,-3.068859 19.410496,-8.132458 4.910163,-4.98688 8.055743,-11.89182 8.055743,-19.48722 0,-7.5954 -3.14558,-14.50034 -8.055743,-19.48722 -4.986882,-5.0636 -11.815092,-8.13246 -19.410496,-8.13246 -7.518683,0 -14.423615,3.06886 -19.333775,8.13246 -4.91016,4.98688 -8.05574,11.89182 -8.05574,19.48722"
                 style="font-size:76.72132874px;font-variant:normal;font-stretch:normal;letter-spacing:-1.27868879px;fill:#ffffff;font-family:Code Light;-inkscape-font-specification:Code Light"
                 id="path4924"
                 inkscape:connector-curvature="0" />
              <path
                 d="m 112.50891,-94.444176 0,-51.249844 35.44525,51.249844 1.22754,0 0,-53.704934 -1.15082,0 0,51.556737 -35.67542,-51.556737 -1.07409,-0.0767 0,53.781654 1.22754,0"
                 style="font-size:76.72132874px;font-variant:normal;font-stretch:normal;letter-spacing:-1.27868879px;fill:#ffffff;font-family:Code Light;-inkscape-font-specification:Code Light"
                 id="path4926"
                 inkscape:connector-curvature="0" />
              <path
                 d="m 173.97988,-147.30517 13.11934,33.68066 -26.16197,0 13.04263,-33.68066 m 20.94492,52.860994 1.30426,0 -21.55869,-54.472144 -1.30426,0 -21.5587,54.472144 1.30427,0 7.28852,-18.029514 27.15935,0 7.36525,18.029514"
                 style="font-size:76.72132874px;font-variant:normal;font-stretch:normal;letter-spacing:-1.27868879px;fill:#ffffff;font-family:Code Light;-inkscape-font-specification:Code Light"
                 id="path4928"
                 inkscape:connector-curvature="0" />
              <path
                 d="m 200.08231,-146.92156 17.41574,0 c 19.94753,0 19.94753,29.00066 0,29.00066 l -10.4341,0 0,1.15082 24.70427,22.325904 1.76459,0 -24.70427,-22.325904 8.66951,0 c 21.48195,0 21.48195,-31.37903 0,-31.37903 l -17.95279,0 -0.61377,0 0,0.61377 0,53.091164 1.15082,0 0,-52.477384"
                 style="font-size:76.72132874px;font-variant:normal;font-stretch:normal;letter-spacing:-1.27868879px;fill:#ffffff;font-family:Code Light;-inkscape-font-specification:Code Light"
                 id="path4930"
                 inkscape:connector-curvature="0" />
            </g>
            <path
               transform="matrix(1.2786888,0,0,-1.2786888,80.26743,326.16859)"
               d="m -6.0978595,154.21918 c 0,0.50516 -0.4095157,0.91468 -0.9146789,0.91468 -0.5051633,0 -0.914679,-0.40952 -0.914679,-0.91468 0,-0.50517 0.4095157,-0.91468 0.914679,-0.91468 0.5051632,0 0.9146789,0.40951 0.9146789,0.91468 z"
               sodipodi:ry="0.91467893"
               sodipodi:rx="0.91467893"
               sodipodi:cy="154.21918"
               sodipodi:cx="-7.0125384"
               id="path4705"
               style="fill:#24c0eb;fill-opacity:1;stroke:#24c0eb;stroke-width:0;stroke-miterlimit:4;stroke-opacity:1;stroke-dasharray:none"
               sodipodi:type="arc" />
            <path
               sodipodi:type="arc"
               style="fill:#b6ff00;fill-opacity:1;stroke:#24c0eb;stroke-width:0;stroke-miterlimit:4;stroke-opacity:1;stroke-dasharray:none"
               id="path4707"
               sodipodi:cx="-7.0125384"
               sodipodi:cy="154.21918"
               sodipodi:rx="0.91467893"
               sodipodi:ry="0.91467893"
               d="m -6.0978595,154.21918 c 0,0.50516 -0.4095157,0.91468 -0.9146789,0.91468 -0.5051633,0 -0.914679,-0.40952 -0.914679,-0.91468 0,-0.50517 0.4095157,-0.91468 0.914679,-0.91468 0.5051632,0 0.9146789,0.40951 0.9146789,0.91468 z"
               transform="matrix(1.2786888,0,0,-1.2786888,94.741995,307.31243)" />
            <path
               transform="matrix(1.2786888,0,0,1.2786888,108.75748,-73.079964)"
               d="m -6.0978595,154.21918 c 0,0.50516 -0.4095157,0.91468 -0.9146789,0.91468 -0.5051633,0 -0.914679,-0.40952 -0.914679,-0.91468 0,-0.50517 0.4095157,-0.91468 0.914679,-0.91468 0.5051632,0 0.9146789,0.40951 0.9146789,0.91468 z"
               sodipodi:ry="0.91467893"
               sodipodi:rx="0.91467893"
               sodipodi:cy="154.21918"
               sodipodi:cx="-7.0125384"
               id="path4709"
               style="fill:#ff0092;fill-opacity:1;stroke:#24c0eb;stroke-width:0;stroke-miterlimit:4;stroke-opacity:1;stroke-dasharray:none"
               sodipodi:type="arc" />
          </g>
        </g>
      </g>
    </g>
  </g>
</svg>
