<?xml version="1.0" encoding="UTF-8" standalone="no"?>
<!-- Created with Inkscape (http://www.inkscape.org/) -->

<svg
   xmlns:dc="http://purl.org/dc/elements/1.1/"
   xmlns:cc="http://creativecommons.org/ns#"
   xmlns:rdf="http://www.w3.org/1999/02/22-rdf-syntax-ns#"
   xmlns:svg="http://www.w3.org/2000/svg"
   xmlns="http://www.w3.org/2000/svg"
   version="1.1"
   width="146.89844"
   height="15.5624"
   id="svg2">
  <defs
     id="defs4" />
  <metadata
     id="metadata7">
    <rdf:RDF>
      <cc:Work
         rdf:about="">
        <dc:format>image/svg+xml</dc:format>
        <dc:type
           rdf:resource="http://purl.org/dc/dcmitype/StillImage" />
        <dc:title></dc:title>
      </cc:Work>
    </rdf:RDF>
  </metadata>
  <g
     transform="translate(-77.158485,-111.6971)"
     id="layer1">
    <g
       id="text2985"
       style="font-size:40px;font-style:normal;font-weight:normal;line-height:125%;letter-spacing:0px;word-spacing:0px;fill:#000000;fill-opacity:1;stroke:none;font-family:Sans">
      <path
         d="m 81.314735,123.79075 -3.757812,0 0,-0.51563 c 0.119791,-0.0104 0.247395,-0.0208 0.382812,-0.0312 0.135416,-0.0156 0.247395,-0.0365 0.335938,-0.0625 0.145832,-0.0469 0.255207,-0.1276 0.328125,-0.24218 0.07292,-0.11979 0.109373,-0.27344 0.109375,-0.46094 l 0,-8.92188 c -2e-6,-0.18749 -0.04167,-0.36196 -0.125,-0.52343 -0.07813,-0.16666 -0.182293,-0.29687 -0.3125,-0.39063 -0.09375,-0.0625 -0.265626,-0.11978 -0.515625,-0.17187 -0.25,-0.0521 -0.450521,-0.0833 -0.601563,-0.0937 l 0,-0.5 2.898438,-0.17969 0.109375,0.11719 0,10.57031 c -3e-6,0.18229 0.03385,0.33333 0.101562,0.45312 0.06771,0.11459 0.17708,0.20313 0.328125,0.26563 0.11458,0.0521 0.226559,0.0911 0.335938,0.11719 0.114579,0.026 0.242183,0.0443 0.382812,0.0547 l 0,0.51563"
         id="path2990"
         style="font-size:16px;font-variant:normal;font-stretch:normal;font-family:Georgia;-inkscape-font-specification:Georgia" />
      <path
         d="m 89.14286,121.97825 c -0.322923,0.61458 -0.755215,1.10417 -1.296875,1.46875 -0.541672,0.36458 -1.164067,0.54687 -1.867187,0.54687 -0.619795,0 -1.164066,-0.10937 -1.632813,-0.32812 -0.463543,-0.21875 -0.846356,-0.51563 -1.148437,-0.89063 -0.302085,-0.375 -0.528647,-0.81249 -0.679688,-1.3125 -0.145834,-0.49999 -0.21875,-1.02864 -0.21875,-1.58593 0,-0.5 0.07813,-0.98958 0.234375,-1.46875 0.161458,-0.48437 0.395833,-0.91927 0.703125,-1.30469 0.296874,-0.36979 0.664061,-0.66666 1.101563,-0.89063 0.442705,-0.22916 0.937496,-0.34374 1.484375,-0.34375 0.562495,1e-5 1.044266,0.0885 1.445312,0.26563 0.401036,0.17709 0.726557,0.41928 0.976563,0.72656 0.239576,0.29167 0.41666,0.63542 0.53125,1.03125 0.119784,0.39584 0.17968,0.82553 0.179687,1.28906 l 0,0.51563 -5.101562,0 c -2e-6,0.50521 0.04687,0.96354 0.140625,1.375 0.09896,0.41146 0.252602,0.77344 0.460937,1.08594 0.203122,0.30208 0.468747,0.54166 0.796875,0.71875 0.328122,0.17187 0.718746,0.25781 1.171875,0.25781 0.463537,0 0.861974,-0.10677 1.195313,-0.32031 0.338535,-0.21875 0.664056,-0.60938 0.976562,-1.17188 l 0.546875,0.33594 m -1.726562,-2.9375 c -6e-6,-0.29166 -0.02605,-0.60416 -0.07813,-0.9375 -0.04688,-0.33333 -0.125006,-0.61197 -0.234375,-0.83594 -0.119797,-0.23958 -0.283859,-0.43489 -0.492188,-0.58594 -0.208338,-0.15103 -0.476566,-0.22655 -0.804687,-0.22656 -0.546879,1e-5 -1.002607,0.22917 -1.367188,0.6875 -0.359377,0.45313 -0.554689,1.08594 -0.585937,1.89844 l 3.5625,0"
         id="path2992"
         style="font-size:16px;font-variant:normal;font-stretch:normal;font-family:Georgia;-inkscape-font-specification:Georgia" />
      <path
         d="m 101.52567,116.58762 c -0.21876,0.0208 -0.45574,0.11199 -0.71093,0.27344 -0.25002,0.16147 -0.43231,0.40365 -0.54688,0.72656 -0.26043,0.76563 -0.507822,1.4922 -0.742187,2.17969 -0.229177,0.6823 -0.486989,1.45052 -0.773438,2.30469 -0.09376,0.27083 -0.190113,0.5625 -0.289062,0.875 -0.09376,0.3125 -0.179696,0.61198 -0.257813,0.89844 l -0.671875,0 -2.070312,-5.67188 -2.085938,5.67188 -0.640625,0 c -0.390627,-1.15625 -0.77344,-2.30208 -1.148437,-3.4375 -0.369793,-1.14062 -0.697918,-2.13281 -0.984375,-2.97657 -0.08333,-0.24478 -0.242188,-0.43749 -0.476563,-0.57812 -0.234375,-0.14062 -0.460937,-0.22395 -0.679687,-0.25 l 0,-0.51563 3.4375,0 0,0.54688 c -0.171878,0.005 -0.359378,0.0339 -0.5625,0.0859 -0.197919,0.0521 -0.296878,0.13802 -0.296875,0.25781 -3e-6,0.0208 0.0078,0.0651 0.02344,0.13281 0.02083,0.0677 0.04427,0.14063 0.07031,0.21875 0.166664,0.54688 0.354164,1.15886 0.5625,1.83594 0.213538,0.67188 0.486975,1.54688 0.820312,2.625 l 1.96875,-5.54688 0.75,0 2.007813,5.46875 c 0.223949,-0.69791 0.445303,-1.37239 0.664062,-2.02343 0.223949,-0.65625 0.419261,-1.27083 0.585938,-1.84375 0.03645,-0.13541 0.0703,-0.25781 0.101562,-0.36719 0.03645,-0.11458 0.05468,-0.22656 0.05469,-0.33594 -1e-5,-0.0937 -0.04168,-0.17708 -0.125,-0.25 -0.08334,-0.0729 -0.184906,-0.1328 -0.304688,-0.17969 -0.104176,-0.0417 -0.218759,-0.0729 -0.34375,-0.0937 -0.119801,-0.0208 -0.208342,-0.0312 -0.265625,-0.0312 l 0,-0.5 2.929683,0 0,0.5"
         id="path2994"
         style="font-size:16px;font-variant:normal;font-stretch:normal;font-family:Georgia;-inkscape-font-specification:Georgia" />
      <path
         d="m 108.70536,121.97825 c -0.32292,0.61458 -0.75521,1.10417 -1.29687,1.46875 -0.54168,0.36458 -1.16407,0.54687 -1.86719,0.54687 -0.6198,0 -1.16407,-0.10937 -1.63281,-0.32812 -0.46355,-0.21875 -0.84636,-0.51563 -1.14844,-0.89063 -0.30209,-0.375 -0.52865,-0.81249 -0.67969,-1.3125 -0.14583,-0.49999 -0.21875,-1.02864 -0.21875,-1.58593 0,-0.5 0.0781,-0.98958 0.23438,-1.46875 0.16145,-0.48437 0.39583,-0.91927 0.70312,-1.30469 0.29687,-0.36979 0.66406,-0.66666 1.10156,-0.89063 0.44271,-0.22916 0.9375,-0.34374 1.48438,-0.34375 0.56249,1e-5 1.04426,0.0885 1.44531,0.26563 0.40104,0.17709 0.72656,0.41928 0.97656,0.72656 0.23958,0.29167 0.41666,0.63542 0.53125,1.03125 0.11979,0.39584 0.17968,0.82553 0.17969,1.28906 l 0,0.51563 -5.10156,0 c 0,0.50521 0.0469,0.96354 0.14062,1.375 0.099,0.41146 0.2526,0.77344 0.46094,1.08594 0.20312,0.30208 0.46875,0.54166 0.79688,0.71875 0.32812,0.17187 0.71874,0.25781 1.17187,0.25781 0.46354,0 0.86197,-0.10677 1.19531,-0.32031 0.33854,-0.21875 0.66406,-0.60938 0.97657,-1.17188 l 0.54687,0.33594 m -1.72656,-2.9375 c -1e-5,-0.29166 -0.0261,-0.60416 -0.0781,-0.9375 -0.0469,-0.33333 -0.125,-0.61197 -0.23437,-0.83594 -0.1198,-0.23958 -0.28386,-0.43489 -0.49219,-0.58594 -0.20834,-0.15103 -0.47657,-0.22655 -0.80469,-0.22656 -0.54688,1e-5 -1.0026,0.22917 -1.36718,0.6875 -0.35938,0.45313 -0.55469,1.08594 -0.58594,1.89844 l 3.5625,0"
         id="path2996"
         style="font-size:16px;font-variant:normal;font-stretch:normal;font-family:Georgia;-inkscape-font-specification:Georgia" />
      <path
         d="m 118.11942,123.79075 -3.77343,0 0,-0.51563 c 0.11978,-0.0104 0.24999,-0.0208 0.39062,-0.0312 0.14583,-0.0104 0.26562,-0.0312 0.35938,-0.0625 0.14582,-0.0469 0.25259,-0.1276 0.32031,-0.24218 0.0729,-0.11979 0.10937,-0.27344 0.10937,-0.46094 l 0,-3.96094 c 0,-0.54687 -0.13021,-0.96874 -0.39062,-1.26562 -0.25522,-0.29687 -0.56772,-0.44531 -0.9375,-0.44532 -0.27605,1e-5 -0.52865,0.0443 -0.75781,0.13282 -0.22918,0.0833 -0.4323,0.1875 -0.60938,0.3125 -0.17188,0.11979 -0.3099,0.25 -0.41406,0.39062 -0.099,0.13542 -0.17188,0.2448 -0.21875,0.32813 l 0,4.42968 c -1e-5,0.17709 0.0364,0.32292 0.10937,0.4375 0.0729,0.11459 0.18229,0.20313 0.32813,0.26563 0.10937,0.0521 0.22656,0.0911 0.35156,0.11719 0.1302,0.026 0.26302,0.0443 0.39844,0.0547 l 0,0.51563 -3.77344,0 0,-0.51563 c 0.11979,-0.0104 0.24219,-0.0208 0.36719,-0.0312 0.13021,-0.0104 0.24218,-0.0312 0.33594,-0.0625 0.14583,-0.0469 0.2526,-0.1276 0.32031,-0.24218 0.0729,-0.11979 0.10937,-0.27344 0.10937,-0.46094 l 0,-4.75781 c 0,-0.17708 -0.0391,-0.33854 -0.11718,-0.48438 -0.0729,-0.15103 -0.17709,-0.27343 -0.3125,-0.36719 -0.099,-0.0625 -0.21615,-0.10676 -0.35157,-0.13281 -0.13541,-0.0312 -0.28125,-0.0521 -0.4375,-0.0625 l 0,-0.50781 2.5625,-0.17188 0.10938,0.10938 0,1.08594 0.0391,0 c 0.125,-0.125 0.28125,-0.27343 0.46875,-0.44532 0.1875,-0.17707 0.36458,-0.3203 0.53125,-0.42968 0.1927,-0.125 0.42187,-0.22916 0.6875,-0.3125 0.26562,-0.0833 0.5651,-0.125 0.89844,-0.125 0.73957,0 1.28645,0.23177 1.64062,0.69531 0.35937,0.45834 0.53906,1.07032 0.53907,1.83594 l 0,4.00781 c -1e-5,0.18229 0.0312,0.33073 0.0937,0.44531 0.0625,0.10938 0.16926,0.19531 0.32031,0.25781 0.12499,0.0521 0.23176,0.0885 0.32031,0.10938 0.0937,0.0208 0.22135,0.0365 0.38281,0.0469 l 0,0.51563"
         id="path2998"
         style="font-size:16px;font-variant:normal;font-stretch:normal;font-family:Georgia;-inkscape-font-specification:Georgia" />
      <path
         d="m 118.49442,126.30637 c 0,-0.26042 0.0703,-0.47396 0.21094,-0.64062 0.14583,-0.16146 0.32552,-0.24219 0.53906,-0.24219 0.16667,0 0.3099,0.0312 0.42969,0.0937 0.11979,0.0625 0.22656,0.14323 0.32031,0.24219 0.0781,0.0781 0.16146,0.18489 0.25,0.32031 0.0885,0.13542 0.15886,0.24739 0.21094,0.33594 0.26041,-0.14063 0.57031,-0.50782 0.92969,-1.10156 0.36458,-0.59375 0.6276,-1.11459 0.78906,-1.5625 -0.49479,-1.23438 -0.94271,-2.33854 -1.34375,-3.3125 -0.40104,-0.97396 -0.82031,-1.98177 -1.25781,-3.02344 -0.099,-0.23958 -0.26563,-0.42447 -0.5,-0.55469 -0.23438,-0.13541 -0.46875,-0.22135 -0.70313,-0.25781 l 0,-0.51563 3.51563,0 0,0.54688 c -0.15626,0.005 -0.34376,0.0391 -0.5625,0.10156 -0.21875,0.0573 -0.32813,0.12501 -0.32813,0.20313 0,0.0312 0.0104,0.0833 0.0312,0.15625 0.026,0.0729 0.0547,0.14844 0.0859,0.22656 0.19791,0.51563 0.5,1.26042 0.90625,2.23437 0.40625,0.96876 0.72135,1.7448 0.94531,2.32813 0.23437,-0.55729 0.47656,-1.13281 0.72657,-1.72656 0.2552,-0.59896 0.53905,-1.30469 0.85156,-2.11719 0.0364,-0.099 0.0885,-0.23437 0.15625,-0.40625 0.0677,-0.17708 0.10155,-0.32812 0.10156,-0.45313 -1e-5,-0.13541 -0.1198,-0.26041 -0.35937,-0.375 -0.23439,-0.11978 -0.45834,-0.1927 -0.67188,-0.21875 l 0,-0.5 2.85938,0 0,0.48438 c -0.15626,0.026 -0.36199,0.11719 -0.61719,0.27344 -0.25522,0.15104 -0.44532,0.36719 -0.57031,0.64843 -0.6198,1.43751 -1.17189,2.7474 -1.65625,3.92969 -0.47918,1.18229 -0.84376,2.05208 -1.09375,2.60938 -0.32813,0.72916 -0.6224,1.29687 -0.88282,1.70312 -0.25521,0.41146 -0.50521,0.73437 -0.75,0.96875 -0.23958,0.21875 -0.45833,0.36458 -0.65625,0.4375 -0.19271,0.0781 -0.39323,0.11719 -0.60156,0.11719 -0.40625,0 -0.72656,-0.0964 -0.96094,-0.28906 -0.22916,-0.19272 -0.34375,-0.41407 -0.34375,-0.66407"
         id="path3000"
         style="font-size:16px;font-variant:normal;font-stretch:normal;font-family:Georgia;-inkscape-font-specification:Georgia" />
      <path
         d="m 135.21317,123.65012 -2.50781,0.17188 -0.11719,-0.10938 0,-0.97656 -0.0469,0 c -0.12501,0.13021 -0.26563,0.27084 -0.42188,0.42188 -0.15625,0.14583 -0.33594,0.27864 -0.53906,0.39843 -0.23438,0.14063 -0.46094,0.2474 -0.67969,0.32032 -0.21875,0.0729 -0.52865,0.10937 -0.92968,0.10937 -0.6823,0 -1.20313,-0.22135 -1.5625,-0.66406 -0.35417,-0.44792 -0.53126,-1.09635 -0.53125,-1.94531 l 0,-3.6875 c -1e-5,-0.1875 -0.0365,-0.34375 -0.10938,-0.46875 -0.0677,-0.13021 -0.16927,-0.24218 -0.30469,-0.33594 -0.0937,-0.0625 -0.21094,-0.10677 -0.35156,-0.13281 -0.14063,-0.0312 -0.28906,-0.0521 -0.44531,-0.0625 l 0,-0.50782 2.57031,-0.1875 0.11719,0.10938 0,5.35156 c -1e-5,0.55729 0.12499,0.97656 0.375,1.25781 0.24999,0.28125 0.54947,0.42188 0.89844,0.42188 0.28645,0 0.54166,-0.0443 0.76562,-0.13281 0.22395,-0.0885 0.41145,-0.19271 0.5625,-0.3125 0.14062,-0.10938 0.26302,-0.22396 0.36719,-0.34375 0.10937,-0.125 0.1927,-0.23959 0.25,-0.34375 l 0,-4.36719 c -1e-5,-0.17187 -0.0365,-0.32291 -0.10938,-0.45313 -0.0729,-0.13541 -0.17448,-0.24999 -0.30468,-0.34375 -0.0938,-0.0625 -0.23439,-0.099 -0.42188,-0.10937 -0.1823,-0.0156 -0.38803,-0.0286 -0.61719,-0.0391 l 0,-0.50782 2.79688,-0.1875 0.11719,0.10938 0,6.11719 c -1e-5,0.17708 0.0365,0.32812 0.10937,0.45312 0.0729,0.125 0.17447,0.23177 0.30469,0.32031 0.0937,0.0573 0.20572,0.0964 0.33594,0.11719 0.1302,0.0156 0.27342,0.026 0.42968,0.0312 l 0,0.50781"
         id="path3002"
         style="font-size:16px;font-variant:normal;font-stretch:normal;font-family:Georgia;-inkscape-font-specification:Georgia" />
      <path
         d="m 147.56474,124.72044 c -0.52085,0.45312 -1.14064,0.8177 -1.85938,1.09375 -0.71355,0.28124 -1.51042,0.42187 -2.39062,0.42187 -0.78647,0 -1.55991,-0.12761 -2.32032,-0.38281 -0.76042,-0.25 -1.44531,-0.63282 -2.05468,-1.14844 -0.60417,-0.51562 -1.09115,-1.15625 -1.46094,-1.92187 -0.3698,-0.77084 -0.55469,-1.67708 -0.55469,-2.71875 0,-0.89062 0.16667,-1.75521 0.5,-2.59375 0.33333,-0.83854 0.80989,-1.58593 1.42969,-2.24219 0.59895,-0.64062 1.33853,-1.15624 2.21875,-1.54688 0.88541,-0.39582 1.84895,-0.59374 2.89062,-0.59375 0.90104,1e-5 1.68228,0.14585 2.34375,0.4375 0.66145,0.28647 1.20312,0.66668 1.625,1.14063 0.42187,0.46876 0.73697,1.00782 0.94532,1.61719 0.21352,0.60938 0.32029,1.24479 0.32031,1.90625 -2e-5,1.27083 -0.34897,2.34635 -1.04688,3.22656 -0.69793,0.875 -1.58074,1.3125 -2.64843,1.3125 -0.44272,0 -0.81772,-0.10938 -1.125,-0.32813 -0.3073,-0.22395 -0.47918,-0.53645 -0.51563,-0.9375 l -0.0547,-0.0156 c -0.25001,0.38021 -0.53646,0.6849 -0.85937,0.91406 -0.31772,0.22396 -0.64063,0.33594 -0.96875,0.33594 -0.21355,0 -0.4323,-0.0339 -0.65625,-0.10156 -0.21876,-0.0729 -0.41407,-0.19011 -0.58594,-0.35157 -0.17188,-0.17187 -0.3099,-0.39583 -0.41406,-0.67187 -0.099,-0.27604 -0.14844,-0.61719 -0.14844,-1.02344 0,-0.3802 0.0859,-0.80468 0.25781,-1.27344 0.17708,-0.47395 0.41406,-0.92447 0.71094,-1.35156 0.29687,-0.43228 0.67968,-0.80728 1.14844,-1.125 0.47395,-0.3177 0.98437,-0.47655 1.53125,-0.47656 0.29166,1e-5 0.54947,0.0833 0.77344,0.25 0.22915,0.16146 0.36978,0.40105 0.42187,0.71875 l 0.0469,0 0.33593,-0.875 1.16407,0 -1.47657,4.20312 c -0.0469,0.13021 -0.0859,0.28126 -0.11718,0.45313 -0.0261,0.16667 -0.0391,0.29948 -0.0391,0.39844 -1e-5,0.26562 0.0677,0.46094 0.20313,0.58593 0.1354,0.1198 0.30988,0.17969 0.52344,0.17969 0.80728,0 1.48175,-0.3776 2.02343,-1.13281 0.54166,-0.76041 0.81249,-1.76041 0.8125,-3 -1e-5,-0.61458 -0.0964,-1.18229 -0.28906,-1.70313 -0.19272,-0.52603 -0.48699,-0.98957 -0.88281,-1.39062 -0.38022,-0.39583 -0.85939,-0.70833 -1.4375,-0.9375 -0.57814,-0.22916 -1.23959,-0.34374 -1.98438,-0.34375 -0.70834,1e-5 -1.39844,0.13803 -2.07031,0.41406 -0.67188,0.27605 -1.28386,0.6823 -1.83594,1.21875 -0.53646,0.52084 -0.97135,1.16928 -1.30468,1.94531 -0.33334,0.77605 -0.50001,1.65365 -0.5,2.63282 -1e-5,0.94271 0.1302,1.77344 0.39062,2.49218 0.26041,0.71355 0.6276,1.3125 1.10156,1.79688 0.46354,0.46875 1.01041,0.82031 1.64063,1.05469 0.6302,0.23437 1.31249,0.35156 2.04687,0.35156 0.82812,0 1.5651,-0.11198 2.21094,-0.33594 0.64582,-0.22396 1.22655,-0.54948 1.74219,-0.97656 l 0.24219,0.39844 m -2.71875,-6.72657 c -0.0729,-0.42187 -0.19012,-0.72916 -0.35157,-0.92187 -0.16146,-0.1927 -0.39844,-0.28906 -0.71093,-0.28906 -0.33335,0 -0.64064,0.13542 -0.92188,0.40625 -0.27605,0.26563 -0.51042,0.58334 -0.70312,0.95312 -0.20314,0.38542 -0.36199,0.8073 -0.47657,1.26563 -0.10938,0.45313 -0.16407,0.8724 -0.16406,1.25781 -1e-5,0.44271 0.0521,0.78386 0.15625,1.02344 0.10937,0.23437 0.28645,0.35156 0.53125,0.35156 0.35416,0 0.67187,-0.1224 0.95313,-0.36719 0.28124,-0.24479 0.54426,-0.59114 0.78906,-1.03906 l 0.89844,-2.64063"
         id="path3004"
         style="font-size:16px;font-variant:normal;font-stretch:normal;font-family:Georgia;-inkscape-font-specification:Georgia" />
      <path
         d="m 157.65067,122.99387 c 0.20833,0.19792 0.37239,0.42188 0.49219,0.67188 0.11978,0.25 0.17968,0.55989 0.17969,0.92969 -1e-5,0.36979 -0.0807,0.71614 -0.24219,1.03906 -0.16147,0.32812 -0.40626,0.61198 -0.73437,0.85156 -0.34897,0.24479 -0.76564,0.43489 -1.25,0.57031 -0.48438,0.13542 -1.08334,0.20313 -1.79688,0.20313 -1.16667,0 -2.03906,-0.17188 -2.61719,-0.51563 -0.57812,-0.33854 -0.86718,-0.83594 -0.86718,-1.49218 0,-0.53125 0.20833,-0.95053 0.625,-1.25782 0.41666,-0.30729 0.94791,-0.47395 1.59375,-0.5 l 0,-0.10937 c -0.15626,-0.0469 -0.31772,-0.10417 -0.48438,-0.17188 -0.16667,-0.0729 -0.3099,-0.15625 -0.42969,-0.25 -0.13542,-0.10937 -0.24479,-0.23697 -0.32812,-0.38281 -0.0833,-0.15104 -0.125,-0.33593 -0.125,-0.55469 0,-0.27604 0.0964,-0.52864 0.28906,-0.75781 0.19792,-0.23437 0.49479,-0.43489 0.89063,-0.60156 l 0,-0.11719 c -0.50001,-0.23437 -0.88803,-0.53385 -1.16407,-0.89844 -0.27604,-0.36978 -0.41406,-0.79687 -0.41406,-1.28125 0,-0.72916 0.27083,-1.32811 0.8125,-1.79687 0.54687,-0.46874 1.24479,-0.70312 2.09375,-0.70313 0.23437,1e-5 0.46614,0.0234 0.69531,0.0703 0.23437,0.0469 0.47135,0.10677 0.71094,0.17968 l 2.6875,0 0,0.75 -1.8125,0 0,0.0469 c 0.1927,0.22396 0.33593,0.47136 0.42969,0.74219 0.0937,0.27084 0.14062,0.53646 0.14062,0.79687 0,0.67709 -0.27605,1.25001 -0.82812,1.71875 -0.54688,0.46875 -1.1849,0.70313 -1.91406,0.70313 l -0.94532,0 c -0.11979,0.0417 -0.24479,0.11719 -0.375,0.22656 -0.13021,0.10938 -0.19531,0.25781 -0.19531,0.44531 0,0.19271 0.0547,0.34115 0.16406,0.44531 0.10938,0.099 0.24219,0.16667 0.39844,0.20313 0.15104,0.0417 0.32552,0.0677 0.52344,0.0781 0.20312,0.0104 0.41145,0.0182 0.625,0.0234 0.22916,0.005 0.54166,0.0208 0.9375,0.0469 0.40103,0.026 0.68489,0.0417 0.85156,0.0469 0.23958,0.0104 0.47916,0.0677 0.71875,0.17188 0.24479,0.10416 0.46614,0.24739 0.66406,0.42968 m -2.10937,-4.57031 c -1e-5,-0.60937 -0.12501,-1.09374 -0.375,-1.45312 -0.2448,-0.36458 -0.59115,-0.54687 -1.03906,-0.54688 -0.2448,10e-6 -0.45574,0.0521 -0.63282,0.15625 -0.17187,0.099 -0.3125,0.2422 -0.42187,0.42969 -0.10417,0.17188 -0.17969,0.38021 -0.22656,0.625 -0.0417,0.23959 -0.0625,0.48698 -0.0625,0.74219 -1e-5,0.57813 0.12499,1.04948 0.375,1.41406 0.2552,0.36459 0.58333,0.54688 0.98437,0.54687 0.44791,1e-5 0.79166,-0.17968 1.03125,-0.53906 0.24479,-0.36458 0.36718,-0.82291 0.36719,-1.375 m 1.5,6.46094 c -1e-5,-0.29167 -0.0677,-0.53125 -0.20313,-0.71875 -0.13542,-0.1875 -0.34115,-0.31511 -0.61718,-0.38281 -0.14584,-0.0208 -0.44532,-0.0443 -0.89844,-0.0703 -0.45313,-0.026 -0.97917,-0.0391 -1.57813,-0.0391 -0.5625,0.10938 -0.96354,0.29167 -1.20312,0.54688 -0.23438,0.26041 -0.35157,0.59375 -0.35156,1 -1e-5,0.18229 0.0391,0.35677 0.11718,0.52343 0.0781,0.16667 0.21354,0.32031 0.40625,0.46094 0.18229,0.13542 0.42708,0.24479 0.73438,0.32813 0.30729,0.0885 0.68229,0.13281 1.125,0.13281 0.76562,0 1.36718,-0.14844 1.80469,-0.44531 0.4427,-0.29167 0.66405,-0.73698 0.66406,-1.33594"
         id="path3006"
         style="font-size:16px;font-variant:normal;font-stretch:normal;font-family:Georgia;-inkscape-font-specification:Georgia" />
      <path
         d="m 172.40067,123.79075 -3.75781,0 0,-0.51563 c 0.11978,-0.0104 0.23957,-0.0208 0.35938,-0.0312 0.12498,-0.0104 0.23436,-0.0312 0.32812,-0.0625 0.14582,-0.0469 0.25259,-0.1276 0.32031,-0.24218 0.0729,-0.11979 0.10937,-0.27344 0.10938,-0.46094 l 0,-3.97656 c -1e-5,-0.54166 -0.12501,-0.95833 -0.375,-1.25 -0.2448,-0.29687 -0.5521,-0.44531 -0.92188,-0.44532 -0.25521,1e-5 -0.4948,0.0391 -0.71875,0.11719 -0.22396,0.0781 -0.42969,0.18751 -0.61718,0.32813 -0.15105,0.11459 -0.27866,0.23959 -0.38282,0.375 -0.099,0.13021 -0.17448,0.23959 -0.22656,0.32812 l 0,4.44531 c -1e-5,0.1823 0.0312,0.33334 0.0937,0.45313 0.0625,0.11458 0.16926,0.20312 0.32031,0.26562 0.11979,0.0469 0.22656,0.0833 0.32032,0.10938 0.099,0.0208 0.22655,0.0365 0.38281,0.0469 l 0,0.51563 -3.67969,0 0,-0.51563 c 0.11979,-0.0104 0.23437,-0.0208 0.34375,-0.0312 0.11458,-0.0104 0.21874,-0.0312 0.3125,-0.0625 0.14583,-0.0469 0.2526,-0.1276 0.32031,-0.24218 0.0729,-0.11979 0.10937,-0.27344 0.10938,-0.46094 l 0,-3.97656 c -1e-5,-0.54166 -0.12501,-0.95833 -0.375,-1.25 -0.2448,-0.29687 -0.55209,-0.44531 -0.92188,-0.44532 -0.25521,1e-5 -0.49479,0.0417 -0.71875,0.125 -0.22396,0.0781 -0.42969,0.18751 -0.61718,0.32813 -0.15105,0.11459 -0.27865,0.2448 -0.38282,0.39062 -0.10417,0.14063 -0.18229,0.24741 -0.23437,0.32032 l 0,4.41406 c -1e-5,0.17708 0.0365,0.32552 0.10937,0.44531 0.0729,0.11979 0.18229,0.21094 0.32813,0.27344 0.10937,0.0521 0.22135,0.0911 0.33594,0.11719 0.11457,0.026 0.24218,0.0443 0.38281,0.0547 l 0,0.51563 -3.74219,0 0,-0.51563 c 0.11979,-0.0104 0.24219,-0.0208 0.36719,-0.0312 0.13021,-0.0104 0.24218,-0.0312 0.33594,-0.0625 0.14583,-0.0469 0.2526,-0.1276 0.32031,-0.24218 0.0729,-0.11979 0.10937,-0.27344 0.10937,-0.46094 l 0,-4.78906 c 0,-0.16666 -0.0391,-0.3151 -0.11718,-0.44532 -0.0729,-0.13541 -0.17709,-0.24999 -0.3125,-0.34375 -0.099,-0.0625 -0.22136,-0.11197 -0.36719,-0.14843 -0.14584,-0.0417 -0.29688,-0.0677 -0.45313,-0.0781 l 0,-0.50781 2.57813,-0.17188 0.10937,0.10938 0,1.10156 0.0547,0 c 0.13021,-0.1302 0.28906,-0.28385 0.47656,-0.46094 0.1875,-0.17707 0.36198,-0.3203 0.52344,-0.42968 0.18229,-0.125 0.40885,-0.22916 0.67969,-0.3125 0.27603,-0.0833 0.57291,-0.125 0.89062,-0.125 0.5,0 0.92968,0.13542 1.28907,0.40625 0.35936,0.26563 0.61718,0.58854 0.77343,0.96875 0.18749,-0.18229 0.35156,-0.34114 0.49219,-0.47657 0.14583,-0.14061 0.33593,-0.28905 0.57031,-0.44531 0.19791,-0.13541 0.42968,-0.24478 0.69532,-0.32812 0.27082,-0.0833 0.5703,-0.125 0.89843,-0.125 0.65103,0 1.16666,0.21355 1.54688,0.64062 0.38019,0.42709 0.5703,1.08334 0.57031,1.96875 l 0,3.91406 c -1e-5,0.1823 0.0312,0.33334 0.0937,0.45313 0.0625,0.11458 0.16926,0.20312 0.32031,0.26562 0.11978,0.0469 0.23697,0.0833 0.35157,0.10938 0.11977,0.0208 0.25259,0.0365 0.39843,0.0469 l 0,0.51563"
         id="path3008"
         style="font-size:16px;font-variant:normal;font-stretch:normal;font-family:Georgia;-inkscape-font-specification:Georgia" />
      <path
         d="m 180.59599,123.65012 c -0.2448,0.0885 -0.46095,0.15886 -0.64844,0.21094 -0.1823,0.0573 -0.39063,0.0859 -0.625,0.0859 -0.40626,0 -0.73178,-0.0937 -0.97656,-0.28125 -0.23959,-0.19271 -0.39324,-0.47135 -0.46094,-0.83594 l -0.0469,0 c -0.33854,0.375 -0.70313,0.66146 -1.09375,0.85938 -0.38542,0.19791 -0.85156,0.29687 -1.39843,0.29687 -0.57813,0 -1.05469,-0.17708 -1.42969,-0.53125 -0.36979,-0.35416 -0.55469,-0.81771 -0.55469,-1.39062 0,-0.29688 0.0417,-0.5625 0.125,-0.79688 0.0833,-0.23437 0.20833,-0.44531 0.375,-0.63281 0.13021,-0.15625 0.30208,-0.29427 0.51563,-0.41406 0.21354,-0.125 0.41406,-0.22396 0.60156,-0.29688 0.23437,-0.0885 0.70833,-0.2526 1.42187,-0.49219 0.71875,-0.23958 1.20312,-0.42707 1.45313,-0.5625 l 0,-0.77343 c -1e-5,-0.0677 -0.0156,-0.19791 -0.0469,-0.39063 -0.026,-0.1927 -0.0859,-0.37499 -0.17968,-0.54687 -0.10418,-0.19271 -0.25261,-0.35937 -0.44532,-0.5 -0.1875,-0.14583 -0.45573,-0.21875 -0.80468,-0.21875 -0.23959,0 -0.46355,0.0417 -0.67188,0.125 -0.20313,0.0781 -0.34636,0.16146 -0.42969,0.25 0,0.10417 0.0234,0.25782 0.0703,0.46093 0.0521,0.20313 0.0781,0.39063 0.0781,0.5625 0,0.1823 -0.0833,0.34897 -0.25,0.5 -0.16146,0.15105 -0.38802,0.22657 -0.67969,0.22657 -0.26042,0 -0.45312,-0.0911 -0.57812,-0.27344 -0.11979,-0.1875 -0.17969,-0.39583 -0.17969,-0.625 0,-0.23958 0.0833,-0.46874 0.25,-0.6875 0.17187,-0.21874 0.39323,-0.41406 0.66406,-0.58594 0.23438,-0.14582 0.51823,-0.26822 0.85157,-0.36719 0.33333,-0.10416 0.65885,-0.15624 0.97656,-0.15625 0.43749,1e-5 0.8177,0.0313 1.14062,0.0937 0.32812,0.0573 0.625,0.18491 0.89063,0.38282 0.26562,0.19271 0.46614,0.45573 0.60156,0.78906 0.14062,0.32813 0.21093,0.75261 0.21094,1.27344 -1e-5,0.74479 -0.008,1.40625 -0.0234,1.98437 -0.0156,0.57292 -0.0234,1.20052 -0.0234,1.88281 0,0.20313 0.0339,0.36459 0.10157,0.48438 0.0729,0.11979 0.18228,0.22135 0.32812,0.30469 0.0781,0.0469 0.20051,0.0729 0.36719,0.0781 0.17187,0.005 0.34634,0.008 0.52344,0.008 l 0,0.5 m -2.72657,-4.125 c -0.44271,0.13022 -0.83073,0.25782 -1.16406,0.38282 -0.33334,0.125 -0.64323,0.28125 -0.92969,0.46875 -0.26042,0.17708 -0.46615,0.38802 -0.61718,0.63281 -0.15105,0.23958 -0.22657,0.52604 -0.22657,0.85937 0,0.4323 0.11198,0.75 0.33594,0.95313 0.22916,0.20312 0.51823,0.30469 0.86719,0.30469 0.36979,0 0.69531,-0.0885 0.97656,-0.26563 0.28125,-0.18229 0.51822,-0.39583 0.71094,-0.64062 l 0.0469,-2.69532"
         id="path3010"
         style="font-size:16px;font-variant:normal;font-stretch:normal;font-family:Georgia;-inkscape-font-specification:Georgia" />
      <path
         d="m 185.1038,123.79075 -3.72656,0 0,-0.51563 c 0.11979,-0.0104 0.24218,-0.0208 0.36718,-0.0312 0.13021,-0.0104 0.24219,-0.0312 0.33594,-0.0625 0.14583,-0.0469 0.2526,-0.1276 0.32031,-0.24218 0.0729,-0.11979 0.10938,-0.27344 0.10938,-0.46094 l 0,-4.75781 c 0,-0.16666 -0.0391,-0.31771 -0.11719,-0.45313 -0.0729,-0.14062 -0.17708,-0.2578 -0.3125,-0.35156 -0.099,-0.0625 -0.24219,-0.11458 -0.42969,-0.15625 -0.1875,-0.0469 -0.35937,-0.0755 -0.51562,-0.0859 l 0,-0.50781 2.71875,-0.17188 0.10937,0.10938 0,6.28125 c 0,0.18229 0.0339,0.33333 0.10157,0.45312 0.0729,0.1198 0.18489,0.20834 0.33593,0.26563 0.11458,0.0469 0.22656,0.0859 0.33594,0.11719 0.10937,0.026 0.23177,0.0443 0.36719,0.0547 l 0,0.51563 m -0.98438,-10.83594 c 0,0.29689 -0.099,0.5573 -0.29687,0.78125 -0.19271,0.21876 -0.4323,0.32814 -0.71875,0.32813 -0.26563,1e-5 -0.4974,-0.10416 -0.69531,-0.3125 -0.19271,-0.21354 -0.28907,-0.45572 -0.28907,-0.72657 0,-0.28644 0.0964,-0.53644 0.28907,-0.75 0.19791,-0.21353 0.42968,-0.3203 0.69531,-0.32031 0.29687,1e-5 0.53906,0.10158 0.72656,0.30469 0.19271,0.19793 0.28906,0.4297 0.28906,0.69531"
         id="path3012"
         style="font-size:16px;font-variant:normal;font-stretch:normal;font-family:Georgia;-inkscape-font-specification:Georgia" />
      <path
         d="m 189.65849,123.79075 -3.75782,0 0,-0.51563 c 0.11979,-0.0104 0.2474,-0.0208 0.38282,-0.0312 0.13541,-0.0156 0.24739,-0.0365 0.33593,-0.0625 0.14583,-0.0469 0.25521,-0.1276 0.32813,-0.24218 0.0729,-0.11979 0.10937,-0.27344 0.10937,-0.46094 l 0,-8.92188 c 0,-0.18749 -0.0417,-0.36196 -0.125,-0.52343 -0.0781,-0.16666 -0.18229,-0.29687 -0.3125,-0.39063 -0.0937,-0.0625 -0.26562,-0.11978 -0.51562,-0.17187 -0.25,-0.0521 -0.45052,-0.0833 -0.60156,-0.0937 l 0,-0.5 2.89843,-0.17969 0.10938,0.11719 0,10.57031 c -1e-5,0.18229 0.0339,0.33333 0.10156,0.45312 0.0677,0.11459 0.17708,0.20313 0.32813,0.26563 0.11458,0.0521 0.22655,0.0911 0.33593,0.11719 0.11458,0.026 0.24219,0.0443 0.38282,0.0547 l 0,0.51563"
         id="path3014"
         style="font-size:16px;font-variant:normal;font-stretch:normal;font-family:Georgia;-inkscape-font-specification:Georgia" />
      <path
         d="m 193.32255,122.89231 c -1e-5,0.29167 -0.10678,0.54167 -0.32031,0.75 -0.20834,0.20313 -0.45834,0.30469 -0.75,0.30469 -0.29167,0 -0.54428,-0.10156 -0.75782,-0.30469 -0.20833,-0.20833 -0.3125,-0.45833 -0.3125,-0.75 0,-0.29166 0.10417,-0.54166 0.3125,-0.75 0.21354,-0.21354 0.46615,-0.32031 0.75782,-0.32031 0.29166,0 0.54166,0.10677 0.75,0.32031 0.21353,0.20834 0.3203,0.45834 0.32031,0.75"
         id="path3016"
         style="font-size:16px;font-variant:normal;font-stretch:normal;font-family:Georgia;-inkscape-font-specification:Georgia" />
      <path
         d="m 198.51786,123.99387 c -1.11459,0 -1.98698,-0.36979 -2.61719,-1.10937 -0.63021,-0.73958 -0.94531,-1.73177 -0.94531,-2.97656 0,-0.54167 0.0833,-1.04687 0.25,-1.51563 0.17187,-0.47395 0.41927,-0.90364 0.74219,-1.28906 0.30729,-0.36979 0.6927,-0.66666 1.15625,-0.89063 0.46354,-0.22916 0.96874,-0.34374 1.51562,-0.34375 0.75521,1e-5 1.36979,0.1823 1.84375,0.54688 0.47395,0.35938 0.71093,0.85157 0.71094,1.47656 -1e-5,0.26042 -0.0625,0.49219 -0.1875,0.69531 -0.12501,0.19793 -0.33074,0.29688 -0.61719,0.29688 -0.30729,0 -0.54688,-0.0781 -0.71875,-0.23438 -0.16667,-0.15624 -0.25,-0.33072 -0.25,-0.52343 0,-0.23437 0.0312,-0.47396 0.0937,-0.71875 0.0625,-0.25 0.099,-0.43229 0.10938,-0.54688 -0.0938,-0.16145 -0.23438,-0.26822 -0.42188,-0.32031 -0.18229,-0.0573 -0.38021,-0.0859 -0.59375,-0.0859 -0.25,1e-5 -0.48958,0.0547 -0.71875,0.16406 -0.22396,0.10418 -0.44271,0.29949 -0.65625,0.58594 -0.19271,0.26042 -0.34896,0.61199 -0.46875,1.05469 -0.11979,0.44271 -0.17969,0.97136 -0.17968,1.58594 -1e-5,0.96875 0.21353,1.76041 0.64062,2.375 0.43229,0.60937 0.99739,0.91406 1.69531,0.91406 0.50521,0 0.92708,-0.1224 1.26563,-0.36719 0.34374,-0.24479 0.66145,-0.61198 0.95312,-1.10156 l 0.5,0.32812 c -0.34375,0.61459 -0.79688,1.10157 -1.35937,1.46094 -0.56251,0.35938 -1.14324,0.53906 -1.74219,0.53906"
         id="path3018"
         style="font-size:16px;font-variant:normal;font-stretch:normal;font-family:Georgia;-inkscape-font-specification:Georgia" />
      <path
         d="m 209.74442,119.86106 c -1e-5,0.54167 -0.0859,1.07552 -0.25781,1.60156 -0.17188,0.52084 -0.41667,0.96355 -0.73437,1.32813 -0.35939,0.41667 -0.77605,0.72656 -1.25,0.92969 -0.47397,0.20312 -1.00522,0.30468 -1.59375,0.30468 -0.48959,0 -0.95574,-0.0911 -1.39844,-0.27343 -0.44271,-0.1875 -0.83594,-0.45834 -1.17969,-0.8125 -0.33854,-0.34896 -0.60938,-0.77344 -0.8125,-1.27344 -0.19792,-0.50521 -0.29688,-1.07031 -0.29687,-1.69531 -1e-5,-1.20312 0.34895,-2.1875 1.04687,-2.95313 0.70312,-0.76562 1.62239,-1.14843 2.75781,-1.14844 1.07812,1e-5 1.96614,0.36459 2.66407,1.09375 0.70311,0.72397 1.05467,1.69011 1.05468,2.89844 m -1.61718,0.0156 c -1e-5,-0.39062 -0.0391,-0.80208 -0.11719,-1.23438 -0.0781,-0.43749 -0.19532,-0.80728 -0.35156,-1.10937 -0.16668,-0.32291 -0.38543,-0.58073 -0.65625,-0.77344 -0.27084,-0.19791 -0.60157,-0.29687 -0.99219,-0.29688 -0.40105,10e-6 -0.7448,0.099 -1.03125,0.29688 -0.28126,0.19792 -0.51042,0.46876 -0.6875,0.8125 -0.16667,0.31771 -0.28386,0.67969 -0.35156,1.08594 -0.0677,0.40625 -0.10157,0.79948 -0.10157,1.17968 0,0.50001 0.0391,0.96355 0.11719,1.39063 0.0833,0.42188 0.21354,0.79948 0.39063,1.13281 0.17708,0.33334 0.39843,0.59636 0.66406,0.78906 0.27083,0.1875 0.60416,0.28125 1,0.28125 0.65103,0 1.16666,-0.3151 1.54687,-0.94531 0.3802,-0.63021 0.57031,-1.5 0.57032,-2.60937"
         id="path3020"
         style="font-size:16px;font-variant:normal;font-stretch:normal;font-family:Georgia;-inkscape-font-specification:Georgia" />
      <path
         d="m 224.05692,123.79075 -3.75781,0 0,-0.51563 c 0.11978,-0.0104 0.23957,-0.0208 0.35938,-0.0312 0.12498,-0.0104 0.23436,-0.0312 0.32812,-0.0625 0.14582,-0.0469 0.25259,-0.1276 0.32031,-0.24218 0.0729,-0.11979 0.10937,-0.27344 0.10938,-0.46094 l 0,-3.97656 c -1e-5,-0.54166 -0.12501,-0.95833 -0.375,-1.25 -0.2448,-0.29687 -0.5521,-0.44531 -0.92188,-0.44532 -0.25521,1e-5 -0.4948,0.0391 -0.71875,0.11719 -0.22396,0.0781 -0.42969,0.18751 -0.61718,0.32813 -0.15105,0.11459 -0.27866,0.23959 -0.38282,0.375 -0.099,0.13021 -0.17448,0.23959 -0.22656,0.32812 l 0,4.44531 c -1e-5,0.1823 0.0312,0.33334 0.0937,0.45313 0.0625,0.11458 0.16926,0.20312 0.32031,0.26562 0.11979,0.0469 0.22656,0.0833 0.32032,0.10938 0.099,0.0208 0.22655,0.0365 0.38281,0.0469 l 0,0.51563 -3.67969,0 0,-0.51563 c 0.11979,-0.0104 0.23437,-0.0208 0.34375,-0.0312 0.11458,-0.0104 0.21874,-0.0312 0.3125,-0.0625 0.14583,-0.0469 0.2526,-0.1276 0.32031,-0.24218 0.0729,-0.11979 0.10937,-0.27344 0.10938,-0.46094 l 0,-3.97656 c -1e-5,-0.54166 -0.12501,-0.95833 -0.375,-1.25 -0.2448,-0.29687 -0.55209,-0.44531 -0.92188,-0.44532 -0.25521,1e-5 -0.49479,0.0417 -0.71875,0.125 -0.22396,0.0781 -0.42969,0.18751 -0.61718,0.32813 -0.15105,0.11459 -0.27865,0.2448 -0.38282,0.39062 -0.10417,0.14063 -0.18229,0.24741 -0.23437,0.32032 l 0,4.41406 c -1e-5,0.17708 0.0365,0.32552 0.10937,0.44531 0.0729,0.11979 0.18229,0.21094 0.32813,0.27344 0.10937,0.0521 0.22135,0.0911 0.33594,0.11719 0.11457,0.026 0.24218,0.0443 0.38281,0.0547 l 0,0.51563 -3.74219,0 0,-0.51563 c 0.11979,-0.0104 0.24219,-0.0208 0.36719,-0.0312 0.13021,-0.0104 0.24218,-0.0312 0.33594,-0.0625 0.14583,-0.0469 0.2526,-0.1276 0.32031,-0.24218 0.0729,-0.11979 0.10937,-0.27344 0.10937,-0.46094 l 0,-4.78906 c 0,-0.16666 -0.0391,-0.3151 -0.11718,-0.44532 -0.0729,-0.13541 -0.17709,-0.24999 -0.3125,-0.34375 -0.099,-0.0625 -0.22136,-0.11197 -0.36719,-0.14843 -0.14584,-0.0417 -0.29688,-0.0677 -0.45313,-0.0781 l 0,-0.50781 2.57813,-0.17188 0.10937,0.10938 0,1.10156 0.0547,0 c 0.13021,-0.1302 0.28906,-0.28385 0.47656,-0.46094 0.1875,-0.17707 0.36198,-0.3203 0.52344,-0.42968 0.18229,-0.125 0.40885,-0.22916 0.67969,-0.3125 0.27603,-0.0833 0.57291,-0.125 0.89062,-0.125 0.5,0 0.92968,0.13542 1.28907,0.40625 0.35936,0.26563 0.61718,0.58854 0.77343,0.96875 0.18749,-0.18229 0.35156,-0.34114 0.49219,-0.47657 0.14583,-0.14061 0.33593,-0.28905 0.57031,-0.44531 0.19791,-0.13541 0.42968,-0.24478 0.69532,-0.32812 0.27082,-0.0833 0.5703,-0.125 0.89843,-0.125 0.65103,0 1.16666,0.21355 1.54688,0.64062 0.38019,0.42709 0.5703,1.08334 0.57031,1.96875 l 0,3.91406 c -1e-5,0.1823 0.0312,0.33334 0.0937,0.45313 0.0625,0.11458 0.16926,0.20312 0.32031,0.26562 0.11978,0.0469 0.23697,0.0833 0.35157,0.10938 0.11977,0.0208 0.25259,0.0365 0.39843,0.0469 l 0,0.51563"
         id="path3022"
         style="font-size:16px;font-variant:normal;font-stretch:normal;font-family:Georgia;-inkscape-font-specification:Georgia" />
    </g>
  </g>
</svg>
